G04 #@! TF.GenerationSoftware,KiCad,Pcbnew,(5.1.2)-1*
G04 #@! TF.CreationDate,2019-08-15T16:07:43+03:00*
G04 #@! TF.ProjectId,invaderBoard,696e7661-6465-4724-926f-6172642e6b69,rev?*
G04 #@! TF.SameCoordinates,Original*
G04 #@! TF.FileFunction,Legend,Top*
G04 #@! TF.FilePolarity,Positive*
%FSLAX46Y46*%
G04 Gerber Fmt 4.6, Leading zero omitted, Abs format (unit mm)*
G04 Created by KiCad (PCBNEW (5.1.2)-1) date 2019-08-15 16:07:43*
%MOMM*%
%LPD*%
G04 APERTURE LIST*
%ADD10C,0.120000*%
%ADD11C,0.150000*%
G04 APERTURE END LIST*
D10*
X236982000Y-75692000D02*
X236982000Y-71882000D01*
X229362000Y-75692000D02*
X236982000Y-75692000D01*
X229362000Y-71882000D02*
X229362000Y-75692000D01*
X242062000Y-71882000D02*
X224282000Y-71882000D01*
X242062000Y-120142000D02*
X242062000Y-71882000D01*
X224282000Y-120142000D02*
X242062000Y-120142000D01*
X224282000Y-71882000D02*
X224282000Y-120142000D01*
X239312000Y-133660000D02*
X240562000Y-133660000D01*
X239312000Y-132410000D02*
X239312000Y-133660000D01*
X244812000Y-124010000D02*
X244812000Y-128310000D01*
X241862000Y-124010000D02*
X244812000Y-124010000D01*
X241862000Y-123260000D02*
X241862000Y-124010000D01*
X244812000Y-132610000D02*
X244812000Y-128310000D01*
X241862000Y-132610000D02*
X244812000Y-132610000D01*
X241862000Y-133360000D02*
X241862000Y-132610000D01*
X239612000Y-123260000D02*
X239612000Y-125060000D01*
X240362000Y-123260000D02*
X239612000Y-123260000D01*
X240362000Y-125060000D02*
X240362000Y-123260000D01*
X239612000Y-125060000D02*
X240362000Y-125060000D01*
X239612000Y-131560000D02*
X239612000Y-133360000D01*
X240362000Y-131560000D02*
X239612000Y-131560000D01*
X240362000Y-133360000D02*
X240362000Y-131560000D01*
X239612000Y-133360000D02*
X240362000Y-133360000D01*
X239612000Y-126560000D02*
X239612000Y-130060000D01*
X240362000Y-126560000D02*
X239612000Y-126560000D01*
X240362000Y-130060000D02*
X240362000Y-126560000D01*
X239612000Y-130060000D02*
X240362000Y-130060000D01*
X239602000Y-123250000D02*
X239602000Y-133370000D01*
X245572000Y-123250000D02*
X239602000Y-123250000D01*
X245572000Y-133370000D02*
X245572000Y-123250000D01*
X239602000Y-133370000D02*
X245572000Y-133370000D01*
X248075000Y-133660000D02*
X249325000Y-133660000D01*
X248075000Y-132410000D02*
X248075000Y-133660000D01*
X253575000Y-121510000D02*
X253575000Y-127060000D01*
X250625000Y-121510000D02*
X253575000Y-121510000D01*
X250625000Y-120760000D02*
X250625000Y-121510000D01*
X253575000Y-132610000D02*
X253575000Y-127060000D01*
X250625000Y-132610000D02*
X253575000Y-132610000D01*
X250625000Y-133360000D02*
X250625000Y-132610000D01*
X248375000Y-120760000D02*
X248375000Y-122560000D01*
X249125000Y-120760000D02*
X248375000Y-120760000D01*
X249125000Y-122560000D02*
X249125000Y-120760000D01*
X248375000Y-122560000D02*
X249125000Y-122560000D01*
X248375000Y-131560000D02*
X248375000Y-133360000D01*
X249125000Y-131560000D02*
X248375000Y-131560000D01*
X249125000Y-133360000D02*
X249125000Y-131560000D01*
X248375000Y-133360000D02*
X249125000Y-133360000D01*
X248375000Y-124060000D02*
X248375000Y-130060000D01*
X249125000Y-124060000D02*
X248375000Y-124060000D01*
X249125000Y-130060000D02*
X249125000Y-124060000D01*
X248375000Y-130060000D02*
X249125000Y-130060000D01*
X248365000Y-120750000D02*
X248365000Y-133370000D01*
X254335000Y-120750000D02*
X248365000Y-120750000D01*
X254335000Y-133370000D02*
X254335000Y-120750000D01*
X248365000Y-133370000D02*
X254335000Y-133370000D01*
X231946000Y-133660000D02*
X233196000Y-133660000D01*
X231946000Y-132410000D02*
X231946000Y-133660000D01*
X237446000Y-124010000D02*
X237446000Y-128310000D01*
X234496000Y-124010000D02*
X237446000Y-124010000D01*
X234496000Y-123260000D02*
X234496000Y-124010000D01*
X237446000Y-132610000D02*
X237446000Y-128310000D01*
X234496000Y-132610000D02*
X237446000Y-132610000D01*
X234496000Y-133360000D02*
X234496000Y-132610000D01*
X232246000Y-123260000D02*
X232246000Y-125060000D01*
X232996000Y-123260000D02*
X232246000Y-123260000D01*
X232996000Y-125060000D02*
X232996000Y-123260000D01*
X232246000Y-125060000D02*
X232996000Y-125060000D01*
X232246000Y-131560000D02*
X232246000Y-133360000D01*
X232996000Y-131560000D02*
X232246000Y-131560000D01*
X232996000Y-133360000D02*
X232996000Y-131560000D01*
X232246000Y-133360000D02*
X232996000Y-133360000D01*
X232246000Y-126560000D02*
X232246000Y-130060000D01*
X232996000Y-126560000D02*
X232246000Y-126560000D01*
X232996000Y-130060000D02*
X232996000Y-126560000D01*
X232246000Y-130060000D02*
X232996000Y-130060000D01*
X232236000Y-123250000D02*
X232236000Y-133370000D01*
X238206000Y-123250000D02*
X232236000Y-123250000D01*
X238206000Y-133370000D02*
X238206000Y-123250000D01*
X232236000Y-133370000D02*
X238206000Y-133370000D01*
X224580000Y-133660000D02*
X225830000Y-133660000D01*
X224580000Y-132410000D02*
X224580000Y-133660000D01*
X230080000Y-124010000D02*
X230080000Y-128310000D01*
X227130000Y-124010000D02*
X230080000Y-124010000D01*
X227130000Y-123260000D02*
X227130000Y-124010000D01*
X230080000Y-132610000D02*
X230080000Y-128310000D01*
X227130000Y-132610000D02*
X230080000Y-132610000D01*
X227130000Y-133360000D02*
X227130000Y-132610000D01*
X224880000Y-123260000D02*
X224880000Y-125060000D01*
X225630000Y-123260000D02*
X224880000Y-123260000D01*
X225630000Y-125060000D02*
X225630000Y-123260000D01*
X224880000Y-125060000D02*
X225630000Y-125060000D01*
X224880000Y-131560000D02*
X224880000Y-133360000D01*
X225630000Y-131560000D02*
X224880000Y-131560000D01*
X225630000Y-133360000D02*
X225630000Y-131560000D01*
X224880000Y-133360000D02*
X225630000Y-133360000D01*
X224880000Y-126560000D02*
X224880000Y-130060000D01*
X225630000Y-126560000D02*
X224880000Y-126560000D01*
X225630000Y-130060000D02*
X225630000Y-126560000D01*
X224880000Y-130060000D02*
X225630000Y-130060000D01*
X224870000Y-123250000D02*
X224870000Y-133370000D01*
X230840000Y-123250000D02*
X224870000Y-123250000D01*
X230840000Y-133370000D02*
X230840000Y-123250000D01*
X224870000Y-133370000D02*
X230840000Y-133370000D01*
X248075000Y-114530000D02*
X249325000Y-114530000D01*
X248075000Y-113280000D02*
X248075000Y-114530000D01*
X253575000Y-104880000D02*
X253575000Y-109180000D01*
X250625000Y-104880000D02*
X253575000Y-104880000D01*
X250625000Y-104130000D02*
X250625000Y-104880000D01*
X253575000Y-113480000D02*
X253575000Y-109180000D01*
X250625000Y-113480000D02*
X253575000Y-113480000D01*
X250625000Y-114230000D02*
X250625000Y-113480000D01*
X248375000Y-104130000D02*
X248375000Y-105930000D01*
X249125000Y-104130000D02*
X248375000Y-104130000D01*
X249125000Y-105930000D02*
X249125000Y-104130000D01*
X248375000Y-105930000D02*
X249125000Y-105930000D01*
X248375000Y-112430000D02*
X248375000Y-114230000D01*
X249125000Y-112430000D02*
X248375000Y-112430000D01*
X249125000Y-114230000D02*
X249125000Y-112430000D01*
X248375000Y-114230000D02*
X249125000Y-114230000D01*
X248375000Y-107430000D02*
X248375000Y-110930000D01*
X249125000Y-107430000D02*
X248375000Y-107430000D01*
X249125000Y-110930000D02*
X249125000Y-107430000D01*
X248375000Y-110930000D02*
X249125000Y-110930000D01*
X248365000Y-104120000D02*
X248365000Y-114240000D01*
X254335000Y-104120000D02*
X248365000Y-104120000D01*
X254335000Y-114240000D02*
X254335000Y-104120000D01*
X248365000Y-114240000D02*
X254335000Y-114240000D01*
X248075000Y-103180000D02*
X249325000Y-103180000D01*
X248075000Y-101930000D02*
X248075000Y-103180000D01*
X253575000Y-93530000D02*
X253575000Y-97830000D01*
X250625000Y-93530000D02*
X253575000Y-93530000D01*
X250625000Y-92780000D02*
X250625000Y-93530000D01*
X253575000Y-102130000D02*
X253575000Y-97830000D01*
X250625000Y-102130000D02*
X253575000Y-102130000D01*
X250625000Y-102880000D02*
X250625000Y-102130000D01*
X248375000Y-92780000D02*
X248375000Y-94580000D01*
X249125000Y-92780000D02*
X248375000Y-92780000D01*
X249125000Y-94580000D02*
X249125000Y-92780000D01*
X248375000Y-94580000D02*
X249125000Y-94580000D01*
X248375000Y-101080000D02*
X248375000Y-102880000D01*
X249125000Y-101080000D02*
X248375000Y-101080000D01*
X249125000Y-102880000D02*
X249125000Y-101080000D01*
X248375000Y-102880000D02*
X249125000Y-102880000D01*
X248375000Y-96080000D02*
X248375000Y-99580000D01*
X249125000Y-96080000D02*
X248375000Y-96080000D01*
X249125000Y-99580000D02*
X249125000Y-96080000D01*
X248375000Y-99580000D02*
X249125000Y-99580000D01*
X248365000Y-92770000D02*
X248365000Y-102890000D01*
X254335000Y-92770000D02*
X248365000Y-92770000D01*
X254335000Y-102890000D02*
X254335000Y-92770000D01*
X248365000Y-102890000D02*
X254335000Y-102890000D01*
X218735000Y-108900000D02*
X203535000Y-108900000D01*
X218735000Y-94300000D02*
X218735000Y-108900000D01*
X203535000Y-94300000D02*
X218735000Y-94300000D01*
X203535000Y-108900000D02*
X203535000Y-94300000D01*
X238864000Y-49280000D02*
X236624000Y-49280000D01*
X238864000Y-49520000D02*
X236624000Y-49520000D01*
X238864000Y-49400000D02*
X236624000Y-49400000D01*
X237744000Y-53570000D02*
X237744000Y-52920000D01*
X237744000Y-48030000D02*
X237744000Y-48680000D01*
X238864000Y-52920000D02*
X238864000Y-48680000D01*
X236624000Y-52920000D02*
X238864000Y-52920000D01*
X236624000Y-48680000D02*
X236624000Y-52920000D01*
X238864000Y-48680000D02*
X236624000Y-48680000D01*
X222885000Y-111760000D02*
X222885000Y-133350000D01*
X222885000Y-133350000D02*
X206375000Y-133350000D01*
X206375000Y-133350000D02*
X206375000Y-111760000D01*
X206375000Y-111760000D02*
X222885000Y-111760000D01*
X231998000Y-49134000D02*
X231998000Y-52974000D01*
X233838000Y-49134000D02*
X233838000Y-52974000D01*
X245586000Y-51635000D02*
X244076000Y-51635000D01*
X245586000Y-47934000D02*
X244076000Y-47934000D01*
X244076000Y-44664000D02*
X244076000Y-54904000D01*
X245586000Y-54904000D02*
X240945000Y-54904000D01*
X245586000Y-44664000D02*
X240945000Y-44664000D01*
X240945000Y-44664000D02*
X240945000Y-54904000D01*
X245586000Y-44664000D02*
X245586000Y-54904000D01*
X252028000Y-86801000D02*
X250698000Y-86801000D01*
X252028000Y-85471000D02*
X252028000Y-86801000D01*
X249428000Y-86801000D02*
X246828000Y-86801000D01*
X249428000Y-84201000D02*
X249428000Y-86801000D01*
X252028000Y-84201000D02*
X249428000Y-84201000D01*
X246828000Y-86801000D02*
X246828000Y-76521000D01*
X252028000Y-84201000D02*
X252028000Y-76521000D01*
X252028000Y-76521000D02*
X246828000Y-76521000D01*
X252028000Y-69656000D02*
X250698000Y-69656000D01*
X252028000Y-68326000D02*
X252028000Y-69656000D01*
X249428000Y-69656000D02*
X246828000Y-69656000D01*
X249428000Y-67056000D02*
X249428000Y-69656000D01*
X252028000Y-67056000D02*
X249428000Y-67056000D01*
X246828000Y-69656000D02*
X246828000Y-59376000D01*
X252028000Y-67056000D02*
X252028000Y-59376000D01*
X252028000Y-59376000D02*
X246828000Y-59376000D01*
X215460000Y-80945000D02*
X214860000Y-80645000D01*
X215460000Y-80345000D02*
X215460000Y-80945000D01*
X214860000Y-80645000D02*
X215460000Y-80345000D01*
X210160000Y-88395000D02*
X210160000Y-87895000D01*
X204660000Y-88395000D02*
X210160000Y-88395000D01*
X204660000Y-87895000D02*
X204660000Y-88395000D01*
X210160000Y-87895000D02*
X204660000Y-87895000D01*
X210160000Y-85895000D02*
X210160000Y-85395000D01*
X204660000Y-85895000D02*
X210160000Y-85895000D01*
X204660000Y-85395000D02*
X204660000Y-85895000D01*
X210160000Y-85395000D02*
X204660000Y-85395000D01*
X210160000Y-83395000D02*
X210160000Y-82895000D01*
X204660000Y-83395000D02*
X210160000Y-83395000D01*
X204660000Y-82895000D02*
X204660000Y-83395000D01*
X210160000Y-82895000D02*
X204660000Y-82895000D01*
X210160000Y-80895000D02*
X210160000Y-80395000D01*
X204660000Y-80895000D02*
X210160000Y-80895000D01*
X204660000Y-80395000D02*
X204660000Y-80895000D01*
X210160000Y-80395000D02*
X204660000Y-80395000D01*
X211270000Y-89285000D02*
X211270000Y-84395000D01*
X215770000Y-89285000D02*
X211270000Y-89285000D01*
X215770000Y-90705000D02*
X215770000Y-89285000D01*
X204050000Y-90705000D02*
X215770000Y-90705000D01*
X204050000Y-84395000D02*
X204050000Y-90705000D01*
X211270000Y-79505000D02*
X211270000Y-84395000D01*
X215770000Y-79505000D02*
X211270000Y-79505000D01*
X215770000Y-78085000D02*
X215770000Y-79505000D01*
X204050000Y-78085000D02*
X215770000Y-78085000D01*
X204050000Y-84395000D02*
X204050000Y-78085000D01*
D11*
X249238095Y-46252380D02*
X249238095Y-45252380D01*
X249238095Y-45728571D02*
X249809523Y-45728571D01*
X249809523Y-46252380D02*
X249809523Y-45252380D01*
X250190476Y-45252380D02*
X250809523Y-45252380D01*
X250476190Y-45633333D01*
X250619047Y-45633333D01*
X250714285Y-45680952D01*
X250761904Y-45728571D01*
X250809523Y-45823809D01*
X250809523Y-46061904D01*
X250761904Y-46157142D01*
X250714285Y-46204761D01*
X250619047Y-46252380D01*
X250333333Y-46252380D01*
X250238095Y-46204761D01*
X250190476Y-46157142D01*
X214238095Y-118752380D02*
X214238095Y-117752380D01*
X214238095Y-118228571D02*
X214809523Y-118228571D01*
X214809523Y-118752380D02*
X214809523Y-117752380D01*
X215238095Y-117847619D02*
X215285714Y-117800000D01*
X215380952Y-117752380D01*
X215619047Y-117752380D01*
X215714285Y-117800000D01*
X215761904Y-117847619D01*
X215809523Y-117942857D01*
X215809523Y-118038095D01*
X215761904Y-118180952D01*
X215190476Y-118752380D01*
X215809523Y-118752380D01*
X211738095Y-38752380D02*
X211738095Y-37752380D01*
X211738095Y-38228571D02*
X212309523Y-38228571D01*
X212309523Y-38752380D02*
X212309523Y-37752380D01*
X213309523Y-38752380D02*
X212738095Y-38752380D01*
X213023809Y-38752380D02*
X213023809Y-37752380D01*
X212928571Y-37895238D01*
X212833333Y-37990476D01*
X212738095Y-38038095D01*
X232410095Y-70564380D02*
X232410095Y-71373904D01*
X232457714Y-71469142D01*
X232505333Y-71516761D01*
X232600571Y-71564380D01*
X232791047Y-71564380D01*
X232886285Y-71516761D01*
X232933904Y-71469142D01*
X232981523Y-71373904D01*
X232981523Y-70564380D01*
X233362476Y-70564380D02*
X233981523Y-70564380D01*
X233648190Y-70945333D01*
X233791047Y-70945333D01*
X233886285Y-70992952D01*
X233933904Y-71040571D01*
X233981523Y-71135809D01*
X233981523Y-71373904D01*
X233933904Y-71469142D01*
X233886285Y-71516761D01*
X233791047Y-71564380D01*
X233505333Y-71564380D01*
X233410095Y-71516761D01*
X233362476Y-71469142D01*
X237964380Y-128643333D02*
X238678666Y-128643333D01*
X238821523Y-128690952D01*
X238916761Y-128786190D01*
X238964380Y-128929047D01*
X238964380Y-129024285D01*
X237964380Y-127738571D02*
X237964380Y-127929047D01*
X238012000Y-128024285D01*
X238059619Y-128071904D01*
X238202476Y-128167142D01*
X238392952Y-128214761D01*
X238773904Y-128214761D01*
X238869142Y-128167142D01*
X238916761Y-128119523D01*
X238964380Y-128024285D01*
X238964380Y-127833809D01*
X238916761Y-127738571D01*
X238869142Y-127690952D01*
X238773904Y-127643333D01*
X238535809Y-127643333D01*
X238440571Y-127690952D01*
X238392952Y-127738571D01*
X238345333Y-127833809D01*
X238345333Y-128024285D01*
X238392952Y-128119523D01*
X238440571Y-128167142D01*
X238535809Y-128214761D01*
X219265666Y-34694761D02*
X219408523Y-34742380D01*
X219646619Y-34742380D01*
X219741857Y-34694761D01*
X219789476Y-34647142D01*
X219837095Y-34551904D01*
X219837095Y-34456666D01*
X219789476Y-34361428D01*
X219741857Y-34313809D01*
X219646619Y-34266190D01*
X219456142Y-34218571D01*
X219360904Y-34170952D01*
X219313285Y-34123333D01*
X219265666Y-34028095D01*
X219265666Y-33932857D01*
X219313285Y-33837619D01*
X219360904Y-33790000D01*
X219456142Y-33742380D01*
X219694238Y-33742380D01*
X219837095Y-33790000D01*
X220170428Y-33742380D02*
X220408523Y-34742380D01*
X220599000Y-34028095D01*
X220789476Y-34742380D01*
X221027571Y-33742380D01*
X221932333Y-34742380D02*
X221360904Y-34742380D01*
X221646619Y-34742380D02*
X221646619Y-33742380D01*
X221551380Y-33885238D01*
X221456142Y-33980476D01*
X221360904Y-34028095D01*
X214931666Y-64730380D02*
X214931666Y-65444666D01*
X214884047Y-65587523D01*
X214788809Y-65682761D01*
X214645952Y-65730380D01*
X214550714Y-65730380D01*
X215931666Y-65730380D02*
X215360238Y-65730380D01*
X215645952Y-65730380D02*
X215645952Y-64730380D01*
X215550714Y-64873238D01*
X215455476Y-64968476D01*
X215360238Y-65016095D01*
X246727380Y-127869523D02*
X247441666Y-127869523D01*
X247584523Y-127917142D01*
X247679761Y-128012380D01*
X247727380Y-128155238D01*
X247727380Y-128250476D01*
X247727380Y-126869523D02*
X247727380Y-127440952D01*
X247727380Y-127155238D02*
X246727380Y-127155238D01*
X246870238Y-127250476D01*
X246965476Y-127345714D01*
X247013095Y-127440952D01*
X247727380Y-125917142D02*
X247727380Y-126488571D01*
X247727380Y-126202857D02*
X246727380Y-126202857D01*
X246870238Y-126298095D01*
X246965476Y-126393333D01*
X247013095Y-126488571D01*
X230598380Y-129119523D02*
X231312666Y-129119523D01*
X231455523Y-129167142D01*
X231550761Y-129262380D01*
X231598380Y-129405238D01*
X231598380Y-129500476D01*
X231598380Y-128119523D02*
X231598380Y-128690952D01*
X231598380Y-128405238D02*
X230598380Y-128405238D01*
X230741238Y-128500476D01*
X230836476Y-128595714D01*
X230884095Y-128690952D01*
X230598380Y-127500476D02*
X230598380Y-127405238D01*
X230646000Y-127310000D01*
X230693619Y-127262380D01*
X230788857Y-127214761D01*
X230979333Y-127167142D01*
X231217428Y-127167142D01*
X231407904Y-127214761D01*
X231503142Y-127262380D01*
X231550761Y-127310000D01*
X231598380Y-127405238D01*
X231598380Y-127500476D01*
X231550761Y-127595714D01*
X231503142Y-127643333D01*
X231407904Y-127690952D01*
X231217428Y-127738571D01*
X230979333Y-127738571D01*
X230788857Y-127690952D01*
X230693619Y-127643333D01*
X230646000Y-127595714D01*
X230598380Y-127500476D01*
X223232380Y-128643333D02*
X223946666Y-128643333D01*
X224089523Y-128690952D01*
X224184761Y-128786190D01*
X224232380Y-128929047D01*
X224232380Y-129024285D01*
X223660952Y-128024285D02*
X223613333Y-128119523D01*
X223565714Y-128167142D01*
X223470476Y-128214761D01*
X223422857Y-128214761D01*
X223327619Y-128167142D01*
X223280000Y-128119523D01*
X223232380Y-128024285D01*
X223232380Y-127833809D01*
X223280000Y-127738571D01*
X223327619Y-127690952D01*
X223422857Y-127643333D01*
X223470476Y-127643333D01*
X223565714Y-127690952D01*
X223613333Y-127738571D01*
X223660952Y-127833809D01*
X223660952Y-128024285D01*
X223708571Y-128119523D01*
X223756190Y-128167142D01*
X223851428Y-128214761D01*
X224041904Y-128214761D01*
X224137142Y-128167142D01*
X224184761Y-128119523D01*
X224232380Y-128024285D01*
X224232380Y-127833809D01*
X224184761Y-127738571D01*
X224137142Y-127690952D01*
X224041904Y-127643333D01*
X223851428Y-127643333D01*
X223756190Y-127690952D01*
X223708571Y-127738571D01*
X223660952Y-127833809D01*
X246727380Y-109989523D02*
X247441666Y-109989523D01*
X247584523Y-110037142D01*
X247679761Y-110132380D01*
X247727380Y-110275238D01*
X247727380Y-110370476D01*
X247727380Y-108989523D02*
X247727380Y-109560952D01*
X247727380Y-109275238D02*
X246727380Y-109275238D01*
X246870238Y-109370476D01*
X246965476Y-109465714D01*
X247013095Y-109560952D01*
X246727380Y-108656190D02*
X246727380Y-108037142D01*
X247108333Y-108370476D01*
X247108333Y-108227619D01*
X247155952Y-108132380D01*
X247203571Y-108084761D01*
X247298809Y-108037142D01*
X247536904Y-108037142D01*
X247632142Y-108084761D01*
X247679761Y-108132380D01*
X247727380Y-108227619D01*
X247727380Y-108513333D01*
X247679761Y-108608571D01*
X247632142Y-108656190D01*
X246727380Y-98163333D02*
X247441666Y-98163333D01*
X247584523Y-98210952D01*
X247679761Y-98306190D01*
X247727380Y-98449047D01*
X247727380Y-98544285D01*
X246727380Y-97782380D02*
X246727380Y-97115714D01*
X247727380Y-97544285D01*
X234267476Y-33742380D02*
X234267476Y-34456666D01*
X234219857Y-34599523D01*
X234124619Y-34694761D01*
X233981761Y-34742380D01*
X233886523Y-34742380D01*
X234696047Y-33837619D02*
X234743666Y-33790000D01*
X234838904Y-33742380D01*
X235077000Y-33742380D01*
X235172238Y-33790000D01*
X235219857Y-33837619D01*
X235267476Y-33932857D01*
X235267476Y-34028095D01*
X235219857Y-34170952D01*
X234648428Y-34742380D01*
X235267476Y-34742380D01*
X235886523Y-33742380D02*
X235981761Y-33742380D01*
X236077000Y-33790000D01*
X236124619Y-33837619D01*
X236172238Y-33932857D01*
X236219857Y-34123333D01*
X236219857Y-34361428D01*
X236172238Y-34551904D01*
X236124619Y-34647142D01*
X236077000Y-34694761D01*
X235981761Y-34742380D01*
X235886523Y-34742380D01*
X235791285Y-34694761D01*
X235743666Y-34647142D01*
X235696047Y-34551904D01*
X235648428Y-34361428D01*
X235648428Y-34123333D01*
X235696047Y-33932857D01*
X235743666Y-33837619D01*
X235791285Y-33790000D01*
X235886523Y-33742380D01*
X245189476Y-33742380D02*
X245189476Y-34456666D01*
X245141857Y-34599523D01*
X245046619Y-34694761D01*
X244903761Y-34742380D01*
X244808523Y-34742380D01*
X246189476Y-34742380D02*
X245618047Y-34742380D01*
X245903761Y-34742380D02*
X245903761Y-33742380D01*
X245808523Y-33885238D01*
X245713285Y-33980476D01*
X245618047Y-34028095D01*
X246665666Y-34742380D02*
X246856142Y-34742380D01*
X246951380Y-34694761D01*
X246999000Y-34647142D01*
X247094238Y-34504285D01*
X247141857Y-34313809D01*
X247141857Y-33932857D01*
X247094238Y-33837619D01*
X247046619Y-33790000D01*
X246951380Y-33742380D01*
X246760904Y-33742380D01*
X246665666Y-33790000D01*
X246618047Y-33837619D01*
X246570428Y-33932857D01*
X246570428Y-34170952D01*
X246618047Y-34266190D01*
X246665666Y-34313809D01*
X246760904Y-34361428D01*
X246951380Y-34361428D01*
X247046619Y-34313809D01*
X247094238Y-34266190D01*
X247141857Y-34170952D01*
X223037380Y-106333333D02*
X223751666Y-106333333D01*
X223894523Y-106380952D01*
X223989761Y-106476190D01*
X224037380Y-106619047D01*
X224037380Y-106714285D01*
X223132619Y-105904761D02*
X223085000Y-105857142D01*
X223037380Y-105761904D01*
X223037380Y-105523809D01*
X223085000Y-105428571D01*
X223132619Y-105380952D01*
X223227857Y-105333333D01*
X223323095Y-105333333D01*
X223465952Y-105380952D01*
X224037380Y-105952380D01*
X224037380Y-105333333D01*
X240316380Y-51538095D02*
X239316380Y-51538095D01*
X239316380Y-51300000D01*
X239364000Y-51157142D01*
X239459238Y-51061904D01*
X239554476Y-51014285D01*
X239744952Y-50966666D01*
X239887809Y-50966666D01*
X240078285Y-51014285D01*
X240173523Y-51061904D01*
X240268761Y-51157142D01*
X240316380Y-51300000D01*
X240316380Y-51538095D01*
X240316380Y-50014285D02*
X240316380Y-50585714D01*
X240316380Y-50300000D02*
X239316380Y-50300000D01*
X239459238Y-50395238D01*
X239554476Y-50490476D01*
X239602095Y-50585714D01*
X239996380Y-47251904D02*
X238996380Y-47251904D01*
X239996380Y-46680476D02*
X239424952Y-47109047D01*
X238996380Y-46680476D02*
X239567809Y-47251904D01*
X204557380Y-122681904D02*
X205366904Y-122681904D01*
X205462142Y-122634285D01*
X205509761Y-122586666D01*
X205557380Y-122491428D01*
X205557380Y-122300952D01*
X205509761Y-122205714D01*
X205462142Y-122158095D01*
X205366904Y-122110476D01*
X204557380Y-122110476D01*
X205557380Y-121110476D02*
X205557380Y-121681904D01*
X205557380Y-121396190D02*
X204557380Y-121396190D01*
X204700238Y-121491428D01*
X204795476Y-121586666D01*
X204843095Y-121681904D01*
X235290380Y-51220666D02*
X234814190Y-51554000D01*
X235290380Y-51792095D02*
X234290380Y-51792095D01*
X234290380Y-51411142D01*
X234338000Y-51315904D01*
X234385619Y-51268285D01*
X234480857Y-51220666D01*
X234623714Y-51220666D01*
X234718952Y-51268285D01*
X234766571Y-51315904D01*
X234814190Y-51411142D01*
X234814190Y-51792095D01*
X234385619Y-50839714D02*
X234338000Y-50792095D01*
X234290380Y-50696857D01*
X234290380Y-50458761D01*
X234338000Y-50363523D01*
X234385619Y-50315904D01*
X234480857Y-50268285D01*
X234576095Y-50268285D01*
X234718952Y-50315904D01*
X235290380Y-50887333D01*
X235290380Y-50268285D01*
X247133619Y-49879238D02*
X247086000Y-49974476D01*
X246990761Y-50069714D01*
X246847904Y-50212571D01*
X246800285Y-50307809D01*
X246800285Y-50403047D01*
X247038380Y-50355428D02*
X246990761Y-50450666D01*
X246895523Y-50545904D01*
X246705047Y-50593523D01*
X246371714Y-50593523D01*
X246181238Y-50545904D01*
X246086000Y-50450666D01*
X246038380Y-50355428D01*
X246038380Y-50164952D01*
X246086000Y-50069714D01*
X246181238Y-49974476D01*
X246371714Y-49926857D01*
X246705047Y-49926857D01*
X246895523Y-49974476D01*
X246990761Y-50069714D01*
X247038380Y-50164952D01*
X247038380Y-50355428D01*
X247038380Y-48974476D02*
X247038380Y-49545904D01*
X247038380Y-49260190D02*
X246038380Y-49260190D01*
X246181238Y-49355428D01*
X246276476Y-49450666D01*
X246324095Y-49545904D01*
X249094666Y-87253380D02*
X249094666Y-87967666D01*
X249047047Y-88110523D01*
X248951809Y-88205761D01*
X248808952Y-88253380D01*
X248713714Y-88253380D01*
X250047047Y-87253380D02*
X249570857Y-87253380D01*
X249523238Y-87729571D01*
X249570857Y-87681952D01*
X249666095Y-87634333D01*
X249904190Y-87634333D01*
X249999428Y-87681952D01*
X250047047Y-87729571D01*
X250094666Y-87824809D01*
X250094666Y-88062904D01*
X250047047Y-88158142D01*
X249999428Y-88205761D01*
X249904190Y-88253380D01*
X249666095Y-88253380D01*
X249570857Y-88205761D01*
X249523238Y-88158142D01*
X249094666Y-70108380D02*
X249094666Y-70822666D01*
X249047047Y-70965523D01*
X248951809Y-71060761D01*
X248808952Y-71108380D01*
X248713714Y-71108380D01*
X249999428Y-70441714D02*
X249999428Y-71108380D01*
X249761333Y-70060761D02*
X249523238Y-70775047D01*
X250142285Y-70775047D01*
X216312380Y-84728333D02*
X217026666Y-84728333D01*
X217169523Y-84775952D01*
X217264761Y-84871190D01*
X217312380Y-85014047D01*
X217312380Y-85109285D01*
X216312380Y-84347380D02*
X216312380Y-83728333D01*
X216693333Y-84061666D01*
X216693333Y-83918809D01*
X216740952Y-83823571D01*
X216788571Y-83775952D01*
X216883809Y-83728333D01*
X217121904Y-83728333D01*
X217217142Y-83775952D01*
X217264761Y-83823571D01*
X217312380Y-83918809D01*
X217312380Y-84204523D01*
X217264761Y-84299761D01*
X217217142Y-84347380D01*
M02*
