G04 #@! TF.GenerationSoftware,KiCad,Pcbnew,(5.1.2)-1*
G04 #@! TF.CreationDate,2019-08-15T16:07:43+03:00*
G04 #@! TF.ProjectId,invaderBoard,696e7661-6465-4724-926f-6172642e6b69,rev?*
G04 #@! TF.SameCoordinates,Original*
G04 #@! TF.FileFunction,Soldermask,Bot*
G04 #@! TF.FilePolarity,Negative*
%FSLAX46Y46*%
G04 Gerber Fmt 4.6, Leading zero omitted, Abs format (unit mm)*
G04 Created by KiCad (PCBNEW (5.1.2)-1) date 2019-08-15 16:07:43*
%MOMM*%
%LPD*%
G04 APERTURE LIST*
%ADD10C,0.100000*%
G04 APERTURE END LIST*
D10*
G36*
X221852142Y-131298242D02*
G01*
X222000101Y-131359529D01*
X222133255Y-131448499D01*
X222246501Y-131561745D01*
X222335471Y-131694899D01*
X222396758Y-131842858D01*
X222428000Y-131999925D01*
X222428000Y-132160075D01*
X222396758Y-132317142D01*
X222335471Y-132465101D01*
X222246501Y-132598255D01*
X222133255Y-132711501D01*
X222000101Y-132800471D01*
X221852142Y-132861758D01*
X221695075Y-132893000D01*
X221534925Y-132893000D01*
X221377858Y-132861758D01*
X221229899Y-132800471D01*
X221096745Y-132711501D01*
X220983499Y-132598255D01*
X220894529Y-132465101D01*
X220833242Y-132317142D01*
X220802000Y-132160075D01*
X220802000Y-131999925D01*
X220833242Y-131842858D01*
X220894529Y-131694899D01*
X220983499Y-131561745D01*
X221096745Y-131448499D01*
X221229899Y-131359529D01*
X221377858Y-131298242D01*
X221534925Y-131267000D01*
X221695075Y-131267000D01*
X221852142Y-131298242D01*
X221852142Y-131298242D01*
G37*
G36*
X219312142Y-131298242D02*
G01*
X219460101Y-131359529D01*
X219593255Y-131448499D01*
X219706501Y-131561745D01*
X219795471Y-131694899D01*
X219856758Y-131842858D01*
X219888000Y-131999925D01*
X219888000Y-132160075D01*
X219856758Y-132317142D01*
X219795471Y-132465101D01*
X219706501Y-132598255D01*
X219593255Y-132711501D01*
X219460101Y-132800471D01*
X219312142Y-132861758D01*
X219155075Y-132893000D01*
X218994925Y-132893000D01*
X218837858Y-132861758D01*
X218689899Y-132800471D01*
X218556745Y-132711501D01*
X218443499Y-132598255D01*
X218354529Y-132465101D01*
X218293242Y-132317142D01*
X218262000Y-132160075D01*
X218262000Y-131999925D01*
X218293242Y-131842858D01*
X218354529Y-131694899D01*
X218443499Y-131561745D01*
X218556745Y-131448499D01*
X218689899Y-131359529D01*
X218837858Y-131298242D01*
X218994925Y-131267000D01*
X219155075Y-131267000D01*
X219312142Y-131298242D01*
X219312142Y-131298242D01*
G37*
G36*
X207882142Y-131298242D02*
G01*
X208030101Y-131359529D01*
X208163255Y-131448499D01*
X208276501Y-131561745D01*
X208365471Y-131694899D01*
X208426758Y-131842858D01*
X208458000Y-131999925D01*
X208458000Y-132160075D01*
X208426758Y-132317142D01*
X208365471Y-132465101D01*
X208276501Y-132598255D01*
X208163255Y-132711501D01*
X208030101Y-132800471D01*
X207882142Y-132861758D01*
X207725075Y-132893000D01*
X207564925Y-132893000D01*
X207407858Y-132861758D01*
X207259899Y-132800471D01*
X207126745Y-132711501D01*
X207013499Y-132598255D01*
X206924529Y-132465101D01*
X206863242Y-132317142D01*
X206832000Y-132160075D01*
X206832000Y-131999925D01*
X206863242Y-131842858D01*
X206924529Y-131694899D01*
X207013499Y-131561745D01*
X207126745Y-131448499D01*
X207259899Y-131359529D01*
X207407858Y-131298242D01*
X207564925Y-131267000D01*
X207725075Y-131267000D01*
X207882142Y-131298242D01*
X207882142Y-131298242D01*
G37*
G36*
X210422142Y-131298242D02*
G01*
X210570101Y-131359529D01*
X210703255Y-131448499D01*
X210816501Y-131561745D01*
X210905471Y-131694899D01*
X210966758Y-131842858D01*
X210998000Y-131999925D01*
X210998000Y-132160075D01*
X210966758Y-132317142D01*
X210905471Y-132465101D01*
X210816501Y-132598255D01*
X210703255Y-132711501D01*
X210570101Y-132800471D01*
X210422142Y-132861758D01*
X210265075Y-132893000D01*
X210104925Y-132893000D01*
X209947858Y-132861758D01*
X209799899Y-132800471D01*
X209666745Y-132711501D01*
X209553499Y-132598255D01*
X209464529Y-132465101D01*
X209403242Y-132317142D01*
X209372000Y-132160075D01*
X209372000Y-131999925D01*
X209403242Y-131842858D01*
X209464529Y-131694899D01*
X209553499Y-131561745D01*
X209666745Y-131448499D01*
X209799899Y-131359529D01*
X209947858Y-131298242D01*
X210104925Y-131267000D01*
X210265075Y-131267000D01*
X210422142Y-131298242D01*
X210422142Y-131298242D01*
G37*
G36*
X251708600Y-129912989D02*
G01*
X251741652Y-129923015D01*
X251772103Y-129939292D01*
X251798799Y-129961201D01*
X251820708Y-129987897D01*
X251836985Y-130018348D01*
X251847011Y-130051400D01*
X251851000Y-130091903D01*
X251851000Y-131528097D01*
X251847011Y-131568600D01*
X251836985Y-131601652D01*
X251820708Y-131632103D01*
X251798799Y-131658799D01*
X251772103Y-131680708D01*
X251741652Y-131696985D01*
X251708600Y-131707011D01*
X251668097Y-131711000D01*
X249981903Y-131711000D01*
X249941400Y-131707011D01*
X249908348Y-131696985D01*
X249877897Y-131680708D01*
X249851201Y-131658799D01*
X249829292Y-131632103D01*
X249813015Y-131601652D01*
X249802989Y-131568600D01*
X249799000Y-131528097D01*
X249799000Y-130091903D01*
X249802989Y-130051400D01*
X249813015Y-130018348D01*
X249829292Y-129987897D01*
X249851201Y-129961201D01*
X249877897Y-129939292D01*
X249908348Y-129923015D01*
X249941400Y-129912989D01*
X249981903Y-129909000D01*
X251668097Y-129909000D01*
X251708600Y-129912989D01*
X251708600Y-129912989D01*
G37*
G36*
X242945600Y-129912989D02*
G01*
X242978652Y-129923015D01*
X243009103Y-129939292D01*
X243035799Y-129961201D01*
X243057708Y-129987897D01*
X243073985Y-130018348D01*
X243084011Y-130051400D01*
X243088000Y-130091903D01*
X243088000Y-131528097D01*
X243084011Y-131568600D01*
X243073985Y-131601652D01*
X243057708Y-131632103D01*
X243035799Y-131658799D01*
X243009103Y-131680708D01*
X242978652Y-131696985D01*
X242945600Y-131707011D01*
X242905097Y-131711000D01*
X241218903Y-131711000D01*
X241178400Y-131707011D01*
X241145348Y-131696985D01*
X241114897Y-131680708D01*
X241088201Y-131658799D01*
X241066292Y-131632103D01*
X241050015Y-131601652D01*
X241039989Y-131568600D01*
X241036000Y-131528097D01*
X241036000Y-130091903D01*
X241039989Y-130051400D01*
X241050015Y-130018348D01*
X241066292Y-129987897D01*
X241088201Y-129961201D01*
X241114897Y-129939292D01*
X241145348Y-129923015D01*
X241178400Y-129912989D01*
X241218903Y-129909000D01*
X242905097Y-129909000D01*
X242945600Y-129912989D01*
X242945600Y-129912989D01*
G37*
G36*
X235579600Y-129912989D02*
G01*
X235612652Y-129923015D01*
X235643103Y-129939292D01*
X235669799Y-129961201D01*
X235691708Y-129987897D01*
X235707985Y-130018348D01*
X235718011Y-130051400D01*
X235722000Y-130091903D01*
X235722000Y-131528097D01*
X235718011Y-131568600D01*
X235707985Y-131601652D01*
X235691708Y-131632103D01*
X235669799Y-131658799D01*
X235643103Y-131680708D01*
X235612652Y-131696985D01*
X235579600Y-131707011D01*
X235539097Y-131711000D01*
X233852903Y-131711000D01*
X233812400Y-131707011D01*
X233779348Y-131696985D01*
X233748897Y-131680708D01*
X233722201Y-131658799D01*
X233700292Y-131632103D01*
X233684015Y-131601652D01*
X233673989Y-131568600D01*
X233670000Y-131528097D01*
X233670000Y-130091903D01*
X233673989Y-130051400D01*
X233684015Y-130018348D01*
X233700292Y-129987897D01*
X233722201Y-129961201D01*
X233748897Y-129939292D01*
X233779348Y-129923015D01*
X233812400Y-129912989D01*
X233852903Y-129909000D01*
X235539097Y-129909000D01*
X235579600Y-129912989D01*
X235579600Y-129912989D01*
G37*
G36*
X228213600Y-129912989D02*
G01*
X228246652Y-129923015D01*
X228277103Y-129939292D01*
X228303799Y-129961201D01*
X228325708Y-129987897D01*
X228341985Y-130018348D01*
X228352011Y-130051400D01*
X228356000Y-130091903D01*
X228356000Y-131528097D01*
X228352011Y-131568600D01*
X228341985Y-131601652D01*
X228325708Y-131632103D01*
X228303799Y-131658799D01*
X228277103Y-131680708D01*
X228246652Y-131696985D01*
X228213600Y-131707011D01*
X228173097Y-131711000D01*
X226486903Y-131711000D01*
X226446400Y-131707011D01*
X226413348Y-131696985D01*
X226382897Y-131680708D01*
X226356201Y-131658799D01*
X226334292Y-131632103D01*
X226318015Y-131601652D01*
X226307989Y-131568600D01*
X226304000Y-131528097D01*
X226304000Y-130091903D01*
X226307989Y-130051400D01*
X226318015Y-130018348D01*
X226334292Y-129987897D01*
X226356201Y-129961201D01*
X226382897Y-129939292D01*
X226413348Y-129923015D01*
X226446400Y-129912989D01*
X226486903Y-129909000D01*
X228173097Y-129909000D01*
X228213600Y-129912989D01*
X228213600Y-129912989D01*
G37*
G36*
X227565443Y-127415519D02*
G01*
X227631627Y-127422037D01*
X227801466Y-127473557D01*
X227957991Y-127557222D01*
X227993729Y-127586552D01*
X228095186Y-127669814D01*
X228178448Y-127771271D01*
X228207778Y-127807009D01*
X228291443Y-127963534D01*
X228342963Y-128133373D01*
X228360359Y-128310000D01*
X228342963Y-128486627D01*
X228291443Y-128656466D01*
X228207778Y-128812991D01*
X228178448Y-128848729D01*
X228095186Y-128950186D01*
X227993729Y-129033448D01*
X227957991Y-129062778D01*
X227801466Y-129146443D01*
X227631627Y-129197963D01*
X227565442Y-129204482D01*
X227499260Y-129211000D01*
X227160740Y-129211000D01*
X227094558Y-129204482D01*
X227028373Y-129197963D01*
X226858534Y-129146443D01*
X226702009Y-129062778D01*
X226666271Y-129033448D01*
X226564814Y-128950186D01*
X226481552Y-128848729D01*
X226452222Y-128812991D01*
X226368557Y-128656466D01*
X226317037Y-128486627D01*
X226299641Y-128310000D01*
X226317037Y-128133373D01*
X226368557Y-127963534D01*
X226452222Y-127807009D01*
X226481552Y-127771271D01*
X226564814Y-127669814D01*
X226666271Y-127586552D01*
X226702009Y-127557222D01*
X226858534Y-127473557D01*
X227028373Y-127422037D01*
X227094557Y-127415519D01*
X227160740Y-127409000D01*
X227499260Y-127409000D01*
X227565443Y-127415519D01*
X227565443Y-127415519D01*
G37*
G36*
X234931443Y-127415519D02*
G01*
X234997627Y-127422037D01*
X235167466Y-127473557D01*
X235323991Y-127557222D01*
X235359729Y-127586552D01*
X235461186Y-127669814D01*
X235544448Y-127771271D01*
X235573778Y-127807009D01*
X235657443Y-127963534D01*
X235708963Y-128133373D01*
X235726359Y-128310000D01*
X235708963Y-128486627D01*
X235657443Y-128656466D01*
X235573778Y-128812991D01*
X235544448Y-128848729D01*
X235461186Y-128950186D01*
X235359729Y-129033448D01*
X235323991Y-129062778D01*
X235167466Y-129146443D01*
X234997627Y-129197963D01*
X234931442Y-129204482D01*
X234865260Y-129211000D01*
X234526740Y-129211000D01*
X234460558Y-129204482D01*
X234394373Y-129197963D01*
X234224534Y-129146443D01*
X234068009Y-129062778D01*
X234032271Y-129033448D01*
X233930814Y-128950186D01*
X233847552Y-128848729D01*
X233818222Y-128812991D01*
X233734557Y-128656466D01*
X233683037Y-128486627D01*
X233665641Y-128310000D01*
X233683037Y-128133373D01*
X233734557Y-127963534D01*
X233818222Y-127807009D01*
X233847552Y-127771271D01*
X233930814Y-127669814D01*
X234032271Y-127586552D01*
X234068009Y-127557222D01*
X234224534Y-127473557D01*
X234394373Y-127422037D01*
X234460557Y-127415519D01*
X234526740Y-127409000D01*
X234865260Y-127409000D01*
X234931443Y-127415519D01*
X234931443Y-127415519D01*
G37*
G36*
X251060443Y-127415519D02*
G01*
X251126627Y-127422037D01*
X251296466Y-127473557D01*
X251452991Y-127557222D01*
X251488729Y-127586552D01*
X251590186Y-127669814D01*
X251673448Y-127771271D01*
X251702778Y-127807009D01*
X251786443Y-127963534D01*
X251837963Y-128133373D01*
X251855359Y-128310000D01*
X251837963Y-128486627D01*
X251786443Y-128656466D01*
X251702778Y-128812991D01*
X251673448Y-128848729D01*
X251590186Y-128950186D01*
X251488729Y-129033448D01*
X251452991Y-129062778D01*
X251296466Y-129146443D01*
X251126627Y-129197963D01*
X251060442Y-129204482D01*
X250994260Y-129211000D01*
X250655740Y-129211000D01*
X250589558Y-129204482D01*
X250523373Y-129197963D01*
X250353534Y-129146443D01*
X250197009Y-129062778D01*
X250161271Y-129033448D01*
X250059814Y-128950186D01*
X249976552Y-128848729D01*
X249947222Y-128812991D01*
X249863557Y-128656466D01*
X249812037Y-128486627D01*
X249794641Y-128310000D01*
X249812037Y-128133373D01*
X249863557Y-127963534D01*
X249947222Y-127807009D01*
X249976552Y-127771271D01*
X250059814Y-127669814D01*
X250161271Y-127586552D01*
X250197009Y-127557222D01*
X250353534Y-127473557D01*
X250523373Y-127422037D01*
X250589557Y-127415519D01*
X250655740Y-127409000D01*
X250994260Y-127409000D01*
X251060443Y-127415519D01*
X251060443Y-127415519D01*
G37*
G36*
X242297443Y-127415519D02*
G01*
X242363627Y-127422037D01*
X242533466Y-127473557D01*
X242689991Y-127557222D01*
X242725729Y-127586552D01*
X242827186Y-127669814D01*
X242910448Y-127771271D01*
X242939778Y-127807009D01*
X243023443Y-127963534D01*
X243074963Y-128133373D01*
X243092359Y-128310000D01*
X243074963Y-128486627D01*
X243023443Y-128656466D01*
X242939778Y-128812991D01*
X242910448Y-128848729D01*
X242827186Y-128950186D01*
X242725729Y-129033448D01*
X242689991Y-129062778D01*
X242533466Y-129146443D01*
X242363627Y-129197963D01*
X242297442Y-129204482D01*
X242231260Y-129211000D01*
X241892740Y-129211000D01*
X241826558Y-129204482D01*
X241760373Y-129197963D01*
X241590534Y-129146443D01*
X241434009Y-129062778D01*
X241398271Y-129033448D01*
X241296814Y-128950186D01*
X241213552Y-128848729D01*
X241184222Y-128812991D01*
X241100557Y-128656466D01*
X241049037Y-128486627D01*
X241031641Y-128310000D01*
X241049037Y-128133373D01*
X241100557Y-127963534D01*
X241184222Y-127807009D01*
X241213552Y-127771271D01*
X241296814Y-127669814D01*
X241398271Y-127586552D01*
X241434009Y-127557222D01*
X241590534Y-127473557D01*
X241760373Y-127422037D01*
X241826557Y-127415519D01*
X241892740Y-127409000D01*
X242231260Y-127409000D01*
X242297443Y-127415519D01*
X242297443Y-127415519D01*
G37*
G36*
X227565443Y-124915519D02*
G01*
X227631627Y-124922037D01*
X227801466Y-124973557D01*
X227957991Y-125057222D01*
X227993729Y-125086552D01*
X228095186Y-125169814D01*
X228178448Y-125271271D01*
X228207778Y-125307009D01*
X228291443Y-125463534D01*
X228342963Y-125633373D01*
X228360359Y-125810000D01*
X228342963Y-125986627D01*
X228291443Y-126156466D01*
X228207778Y-126312991D01*
X228178448Y-126348729D01*
X228095186Y-126450186D01*
X227993729Y-126533448D01*
X227957991Y-126562778D01*
X227801466Y-126646443D01*
X227631627Y-126697963D01*
X227565442Y-126704482D01*
X227499260Y-126711000D01*
X227160740Y-126711000D01*
X227094558Y-126704482D01*
X227028373Y-126697963D01*
X226858534Y-126646443D01*
X226702009Y-126562778D01*
X226666271Y-126533448D01*
X226564814Y-126450186D01*
X226481552Y-126348729D01*
X226452222Y-126312991D01*
X226368557Y-126156466D01*
X226317037Y-125986627D01*
X226299641Y-125810000D01*
X226317037Y-125633373D01*
X226368557Y-125463534D01*
X226452222Y-125307009D01*
X226481552Y-125271271D01*
X226564814Y-125169814D01*
X226666271Y-125086552D01*
X226702009Y-125057222D01*
X226858534Y-124973557D01*
X227028373Y-124922037D01*
X227094557Y-124915519D01*
X227160740Y-124909000D01*
X227499260Y-124909000D01*
X227565443Y-124915519D01*
X227565443Y-124915519D01*
G37*
G36*
X234931443Y-124915519D02*
G01*
X234997627Y-124922037D01*
X235167466Y-124973557D01*
X235323991Y-125057222D01*
X235359729Y-125086552D01*
X235461186Y-125169814D01*
X235544448Y-125271271D01*
X235573778Y-125307009D01*
X235657443Y-125463534D01*
X235708963Y-125633373D01*
X235726359Y-125810000D01*
X235708963Y-125986627D01*
X235657443Y-126156466D01*
X235573778Y-126312991D01*
X235544448Y-126348729D01*
X235461186Y-126450186D01*
X235359729Y-126533448D01*
X235323991Y-126562778D01*
X235167466Y-126646443D01*
X234997627Y-126697963D01*
X234931442Y-126704482D01*
X234865260Y-126711000D01*
X234526740Y-126711000D01*
X234460558Y-126704482D01*
X234394373Y-126697963D01*
X234224534Y-126646443D01*
X234068009Y-126562778D01*
X234032271Y-126533448D01*
X233930814Y-126450186D01*
X233847552Y-126348729D01*
X233818222Y-126312991D01*
X233734557Y-126156466D01*
X233683037Y-125986627D01*
X233665641Y-125810000D01*
X233683037Y-125633373D01*
X233734557Y-125463534D01*
X233818222Y-125307009D01*
X233847552Y-125271271D01*
X233930814Y-125169814D01*
X234032271Y-125086552D01*
X234068009Y-125057222D01*
X234224534Y-124973557D01*
X234394373Y-124922037D01*
X234460557Y-124915519D01*
X234526740Y-124909000D01*
X234865260Y-124909000D01*
X234931443Y-124915519D01*
X234931443Y-124915519D01*
G37*
G36*
X251060443Y-124915519D02*
G01*
X251126627Y-124922037D01*
X251296466Y-124973557D01*
X251452991Y-125057222D01*
X251488729Y-125086552D01*
X251590186Y-125169814D01*
X251673448Y-125271271D01*
X251702778Y-125307009D01*
X251786443Y-125463534D01*
X251837963Y-125633373D01*
X251855359Y-125810000D01*
X251837963Y-125986627D01*
X251786443Y-126156466D01*
X251702778Y-126312991D01*
X251673448Y-126348729D01*
X251590186Y-126450186D01*
X251488729Y-126533448D01*
X251452991Y-126562778D01*
X251296466Y-126646443D01*
X251126627Y-126697963D01*
X251060442Y-126704482D01*
X250994260Y-126711000D01*
X250655740Y-126711000D01*
X250589558Y-126704482D01*
X250523373Y-126697963D01*
X250353534Y-126646443D01*
X250197009Y-126562778D01*
X250161271Y-126533448D01*
X250059814Y-126450186D01*
X249976552Y-126348729D01*
X249947222Y-126312991D01*
X249863557Y-126156466D01*
X249812037Y-125986627D01*
X249794641Y-125810000D01*
X249812037Y-125633373D01*
X249863557Y-125463534D01*
X249947222Y-125307009D01*
X249976552Y-125271271D01*
X250059814Y-125169814D01*
X250161271Y-125086552D01*
X250197009Y-125057222D01*
X250353534Y-124973557D01*
X250523373Y-124922037D01*
X250589557Y-124915519D01*
X250655740Y-124909000D01*
X250994260Y-124909000D01*
X251060443Y-124915519D01*
X251060443Y-124915519D01*
G37*
G36*
X242297443Y-124915519D02*
G01*
X242363627Y-124922037D01*
X242533466Y-124973557D01*
X242689991Y-125057222D01*
X242725729Y-125086552D01*
X242827186Y-125169814D01*
X242910448Y-125271271D01*
X242939778Y-125307009D01*
X243023443Y-125463534D01*
X243074963Y-125633373D01*
X243092359Y-125810000D01*
X243074963Y-125986627D01*
X243023443Y-126156466D01*
X242939778Y-126312991D01*
X242910448Y-126348729D01*
X242827186Y-126450186D01*
X242725729Y-126533448D01*
X242689991Y-126562778D01*
X242533466Y-126646443D01*
X242363627Y-126697963D01*
X242297442Y-126704482D01*
X242231260Y-126711000D01*
X241892740Y-126711000D01*
X241826558Y-126704482D01*
X241760373Y-126697963D01*
X241590534Y-126646443D01*
X241434009Y-126562778D01*
X241398271Y-126533448D01*
X241296814Y-126450186D01*
X241213552Y-126348729D01*
X241184222Y-126312991D01*
X241100557Y-126156466D01*
X241049037Y-125986627D01*
X241031641Y-125810000D01*
X241049037Y-125633373D01*
X241100557Y-125463534D01*
X241184222Y-125307009D01*
X241213552Y-125271271D01*
X241296814Y-125169814D01*
X241398271Y-125086552D01*
X241434009Y-125057222D01*
X241590534Y-124973557D01*
X241760373Y-124922037D01*
X241826557Y-124915519D01*
X241892740Y-124909000D01*
X242231260Y-124909000D01*
X242297443Y-124915519D01*
X242297443Y-124915519D01*
G37*
G36*
X251060442Y-122415518D02*
G01*
X251126627Y-122422037D01*
X251296466Y-122473557D01*
X251452991Y-122557222D01*
X251488729Y-122586552D01*
X251590186Y-122669814D01*
X251673448Y-122771271D01*
X251702778Y-122807009D01*
X251786443Y-122963534D01*
X251837963Y-123133373D01*
X251855359Y-123310000D01*
X251837963Y-123486627D01*
X251786443Y-123656466D01*
X251702778Y-123812991D01*
X251673448Y-123848729D01*
X251590186Y-123950186D01*
X251488729Y-124033448D01*
X251452991Y-124062778D01*
X251296466Y-124146443D01*
X251126627Y-124197963D01*
X251060442Y-124204482D01*
X250994260Y-124211000D01*
X250655740Y-124211000D01*
X250589558Y-124204482D01*
X250523373Y-124197963D01*
X250353534Y-124146443D01*
X250197009Y-124062778D01*
X250161271Y-124033448D01*
X250059814Y-123950186D01*
X249976552Y-123848729D01*
X249947222Y-123812991D01*
X249863557Y-123656466D01*
X249812037Y-123486627D01*
X249794641Y-123310000D01*
X249812037Y-123133373D01*
X249863557Y-122963534D01*
X249947222Y-122807009D01*
X249976552Y-122771271D01*
X250059814Y-122669814D01*
X250161271Y-122586552D01*
X250197009Y-122557222D01*
X250353534Y-122473557D01*
X250523373Y-122422037D01*
X250589558Y-122415518D01*
X250655740Y-122409000D01*
X250994260Y-122409000D01*
X251060442Y-122415518D01*
X251060442Y-122415518D01*
G37*
G36*
X215375256Y-120891298D02*
G01*
X215481579Y-120912447D01*
X215782042Y-121036903D01*
X216052451Y-121217585D01*
X216282415Y-121447549D01*
X216463097Y-121717958D01*
X216587553Y-122018421D01*
X216651000Y-122337391D01*
X216651000Y-122662609D01*
X216587553Y-122981579D01*
X216463097Y-123282042D01*
X216282415Y-123552451D01*
X216052451Y-123782415D01*
X215782042Y-123963097D01*
X215481579Y-124087553D01*
X215375256Y-124108702D01*
X215162611Y-124151000D01*
X214837389Y-124151000D01*
X214624744Y-124108702D01*
X214518421Y-124087553D01*
X214217958Y-123963097D01*
X213947549Y-123782415D01*
X213717585Y-123552451D01*
X213536903Y-123282042D01*
X213412447Y-122981579D01*
X213349000Y-122662609D01*
X213349000Y-122337391D01*
X213412447Y-122018421D01*
X213536903Y-121717958D01*
X213717585Y-121447549D01*
X213947549Y-121217585D01*
X214217958Y-121036903D01*
X214518421Y-120912447D01*
X214624744Y-120891298D01*
X214837389Y-120849000D01*
X215162611Y-120849000D01*
X215375256Y-120891298D01*
X215375256Y-120891298D01*
G37*
G36*
X225789142Y-115550242D02*
G01*
X225937101Y-115611529D01*
X226070255Y-115700499D01*
X226183501Y-115813745D01*
X226272471Y-115946899D01*
X226333758Y-116094858D01*
X226365000Y-116251925D01*
X226365000Y-116412075D01*
X226333758Y-116569142D01*
X226272471Y-116717101D01*
X226183501Y-116850255D01*
X226070255Y-116963501D01*
X225937101Y-117052471D01*
X225789142Y-117113758D01*
X225632075Y-117145000D01*
X225471925Y-117145000D01*
X225314858Y-117113758D01*
X225166899Y-117052471D01*
X225033745Y-116963501D01*
X224920499Y-116850255D01*
X224831529Y-116717101D01*
X224770242Y-116569142D01*
X224739000Y-116412075D01*
X224739000Y-116251925D01*
X224770242Y-116094858D01*
X224831529Y-115946899D01*
X224920499Y-115813745D01*
X225033745Y-115700499D01*
X225166899Y-115611529D01*
X225314858Y-115550242D01*
X225471925Y-115519000D01*
X225632075Y-115519000D01*
X225789142Y-115550242D01*
X225789142Y-115550242D01*
G37*
G36*
X241029142Y-115550242D02*
G01*
X241177101Y-115611529D01*
X241310255Y-115700499D01*
X241423501Y-115813745D01*
X241512471Y-115946899D01*
X241573758Y-116094858D01*
X241605000Y-116251925D01*
X241605000Y-116412075D01*
X241573758Y-116569142D01*
X241512471Y-116717101D01*
X241423501Y-116850255D01*
X241310255Y-116963501D01*
X241177101Y-117052471D01*
X241029142Y-117113758D01*
X240872075Y-117145000D01*
X240711925Y-117145000D01*
X240554858Y-117113758D01*
X240406899Y-117052471D01*
X240273745Y-116963501D01*
X240160499Y-116850255D01*
X240071529Y-116717101D01*
X240010242Y-116569142D01*
X239979000Y-116412075D01*
X239979000Y-116251925D01*
X240010242Y-116094858D01*
X240071529Y-115946899D01*
X240160499Y-115813745D01*
X240273745Y-115700499D01*
X240406899Y-115611529D01*
X240554858Y-115550242D01*
X240711925Y-115519000D01*
X240872075Y-115519000D01*
X241029142Y-115550242D01*
X241029142Y-115550242D01*
G37*
G36*
X225789142Y-113010242D02*
G01*
X225937101Y-113071529D01*
X226070255Y-113160499D01*
X226183501Y-113273745D01*
X226272471Y-113406899D01*
X226333758Y-113554858D01*
X226365000Y-113711925D01*
X226365000Y-113872075D01*
X226333758Y-114029142D01*
X226272471Y-114177101D01*
X226183501Y-114310255D01*
X226070255Y-114423501D01*
X225937101Y-114512471D01*
X225789142Y-114573758D01*
X225632075Y-114605000D01*
X225471925Y-114605000D01*
X225314858Y-114573758D01*
X225166899Y-114512471D01*
X225033745Y-114423501D01*
X224920499Y-114310255D01*
X224831529Y-114177101D01*
X224770242Y-114029142D01*
X224739000Y-113872075D01*
X224739000Y-113711925D01*
X224770242Y-113554858D01*
X224831529Y-113406899D01*
X224920499Y-113273745D01*
X225033745Y-113160499D01*
X225166899Y-113071529D01*
X225314858Y-113010242D01*
X225471925Y-112979000D01*
X225632075Y-112979000D01*
X225789142Y-113010242D01*
X225789142Y-113010242D01*
G37*
G36*
X241029142Y-113010242D02*
G01*
X241177101Y-113071529D01*
X241310255Y-113160499D01*
X241423501Y-113273745D01*
X241512471Y-113406899D01*
X241573758Y-113554858D01*
X241605000Y-113711925D01*
X241605000Y-113872075D01*
X241573758Y-114029142D01*
X241512471Y-114177101D01*
X241423501Y-114310255D01*
X241310255Y-114423501D01*
X241177101Y-114512471D01*
X241029142Y-114573758D01*
X240872075Y-114605000D01*
X240711925Y-114605000D01*
X240554858Y-114573758D01*
X240406899Y-114512471D01*
X240273745Y-114423501D01*
X240160499Y-114310255D01*
X240071529Y-114177101D01*
X240010242Y-114029142D01*
X239979000Y-113872075D01*
X239979000Y-113711925D01*
X240010242Y-113554858D01*
X240071529Y-113406899D01*
X240160499Y-113273745D01*
X240273745Y-113160499D01*
X240406899Y-113071529D01*
X240554858Y-113010242D01*
X240711925Y-112979000D01*
X240872075Y-112979000D01*
X241029142Y-113010242D01*
X241029142Y-113010242D01*
G37*
G36*
X207882142Y-112248242D02*
G01*
X208030101Y-112309529D01*
X208163255Y-112398499D01*
X208276501Y-112511745D01*
X208365471Y-112644899D01*
X208426758Y-112792858D01*
X208458000Y-112949925D01*
X208458000Y-113110075D01*
X208426758Y-113267142D01*
X208365471Y-113415101D01*
X208276501Y-113548255D01*
X208163255Y-113661501D01*
X208030101Y-113750471D01*
X207882142Y-113811758D01*
X207725075Y-113843000D01*
X207564925Y-113843000D01*
X207407858Y-113811758D01*
X207259899Y-113750471D01*
X207126745Y-113661501D01*
X207013499Y-113548255D01*
X206924529Y-113415101D01*
X206863242Y-113267142D01*
X206832000Y-113110075D01*
X206832000Y-112949925D01*
X206863242Y-112792858D01*
X206924529Y-112644899D01*
X207013499Y-112511745D01*
X207126745Y-112398499D01*
X207259899Y-112309529D01*
X207407858Y-112248242D01*
X207564925Y-112217000D01*
X207725075Y-112217000D01*
X207882142Y-112248242D01*
X207882142Y-112248242D01*
G37*
G36*
X210422142Y-112248242D02*
G01*
X210570101Y-112309529D01*
X210703255Y-112398499D01*
X210816501Y-112511745D01*
X210905471Y-112644899D01*
X210966758Y-112792858D01*
X210998000Y-112949925D01*
X210998000Y-113110075D01*
X210966758Y-113267142D01*
X210905471Y-113415101D01*
X210816501Y-113548255D01*
X210703255Y-113661501D01*
X210570101Y-113750471D01*
X210422142Y-113811758D01*
X210265075Y-113843000D01*
X210104925Y-113843000D01*
X209947858Y-113811758D01*
X209799899Y-113750471D01*
X209666745Y-113661501D01*
X209553499Y-113548255D01*
X209464529Y-113415101D01*
X209403242Y-113267142D01*
X209372000Y-113110075D01*
X209372000Y-112949925D01*
X209403242Y-112792858D01*
X209464529Y-112644899D01*
X209553499Y-112511745D01*
X209666745Y-112398499D01*
X209799899Y-112309529D01*
X209947858Y-112248242D01*
X210104925Y-112217000D01*
X210265075Y-112217000D01*
X210422142Y-112248242D01*
X210422142Y-112248242D01*
G37*
G36*
X221852142Y-112248242D02*
G01*
X222000101Y-112309529D01*
X222133255Y-112398499D01*
X222246501Y-112511745D01*
X222335471Y-112644899D01*
X222396758Y-112792858D01*
X222428000Y-112949925D01*
X222428000Y-113110075D01*
X222396758Y-113267142D01*
X222335471Y-113415101D01*
X222246501Y-113548255D01*
X222133255Y-113661501D01*
X222000101Y-113750471D01*
X221852142Y-113811758D01*
X221695075Y-113843000D01*
X221534925Y-113843000D01*
X221377858Y-113811758D01*
X221229899Y-113750471D01*
X221096745Y-113661501D01*
X220983499Y-113548255D01*
X220894529Y-113415101D01*
X220833242Y-113267142D01*
X220802000Y-113110075D01*
X220802000Y-112949925D01*
X220833242Y-112792858D01*
X220894529Y-112644899D01*
X220983499Y-112511745D01*
X221096745Y-112398499D01*
X221229899Y-112309529D01*
X221377858Y-112248242D01*
X221534925Y-112217000D01*
X221695075Y-112217000D01*
X221852142Y-112248242D01*
X221852142Y-112248242D01*
G37*
G36*
X219312142Y-112248242D02*
G01*
X219460101Y-112309529D01*
X219593255Y-112398499D01*
X219706501Y-112511745D01*
X219795471Y-112644899D01*
X219856758Y-112792858D01*
X219888000Y-112949925D01*
X219888000Y-113110075D01*
X219856758Y-113267142D01*
X219795471Y-113415101D01*
X219706501Y-113548255D01*
X219593255Y-113661501D01*
X219460101Y-113750471D01*
X219312142Y-113811758D01*
X219155075Y-113843000D01*
X218994925Y-113843000D01*
X218837858Y-113811758D01*
X218689899Y-113750471D01*
X218556745Y-113661501D01*
X218443499Y-113548255D01*
X218354529Y-113415101D01*
X218293242Y-113267142D01*
X218262000Y-113110075D01*
X218262000Y-112949925D01*
X218293242Y-112792858D01*
X218354529Y-112644899D01*
X218443499Y-112511745D01*
X218556745Y-112398499D01*
X218689899Y-112309529D01*
X218837858Y-112248242D01*
X218994925Y-112217000D01*
X219155075Y-112217000D01*
X219312142Y-112248242D01*
X219312142Y-112248242D01*
G37*
G36*
X251708600Y-110782989D02*
G01*
X251741652Y-110793015D01*
X251772103Y-110809292D01*
X251798799Y-110831201D01*
X251820708Y-110857897D01*
X251836985Y-110888348D01*
X251847011Y-110921400D01*
X251851000Y-110961903D01*
X251851000Y-112398097D01*
X251847011Y-112438600D01*
X251836985Y-112471652D01*
X251820708Y-112502103D01*
X251798799Y-112528799D01*
X251772103Y-112550708D01*
X251741652Y-112566985D01*
X251708600Y-112577011D01*
X251668097Y-112581000D01*
X249981903Y-112581000D01*
X249941400Y-112577011D01*
X249908348Y-112566985D01*
X249877897Y-112550708D01*
X249851201Y-112528799D01*
X249829292Y-112502103D01*
X249813015Y-112471652D01*
X249802989Y-112438600D01*
X249799000Y-112398097D01*
X249799000Y-110961903D01*
X249802989Y-110921400D01*
X249813015Y-110888348D01*
X249829292Y-110857897D01*
X249851201Y-110831201D01*
X249877897Y-110809292D01*
X249908348Y-110793015D01*
X249941400Y-110782989D01*
X249981903Y-110779000D01*
X251668097Y-110779000D01*
X251708600Y-110782989D01*
X251708600Y-110782989D01*
G37*
G36*
X225789142Y-110470242D02*
G01*
X225937101Y-110531529D01*
X226070255Y-110620499D01*
X226183501Y-110733745D01*
X226272471Y-110866899D01*
X226333758Y-111014858D01*
X226365000Y-111171925D01*
X226365000Y-111332075D01*
X226333758Y-111489142D01*
X226272471Y-111637101D01*
X226183501Y-111770255D01*
X226070255Y-111883501D01*
X225937101Y-111972471D01*
X225789142Y-112033758D01*
X225632075Y-112065000D01*
X225471925Y-112065000D01*
X225314858Y-112033758D01*
X225166899Y-111972471D01*
X225033745Y-111883501D01*
X224920499Y-111770255D01*
X224831529Y-111637101D01*
X224770242Y-111489142D01*
X224739000Y-111332075D01*
X224739000Y-111171925D01*
X224770242Y-111014858D01*
X224831529Y-110866899D01*
X224920499Y-110733745D01*
X225033745Y-110620499D01*
X225166899Y-110531529D01*
X225314858Y-110470242D01*
X225471925Y-110439000D01*
X225632075Y-110439000D01*
X225789142Y-110470242D01*
X225789142Y-110470242D01*
G37*
G36*
X241029142Y-110470242D02*
G01*
X241177101Y-110531529D01*
X241310255Y-110620499D01*
X241423501Y-110733745D01*
X241512471Y-110866899D01*
X241573758Y-111014858D01*
X241605000Y-111171925D01*
X241605000Y-111332075D01*
X241573758Y-111489142D01*
X241512471Y-111637101D01*
X241423501Y-111770255D01*
X241310255Y-111883501D01*
X241177101Y-111972471D01*
X241029142Y-112033758D01*
X240872075Y-112065000D01*
X240711925Y-112065000D01*
X240554858Y-112033758D01*
X240406899Y-111972471D01*
X240273745Y-111883501D01*
X240160499Y-111770255D01*
X240071529Y-111637101D01*
X240010242Y-111489142D01*
X239979000Y-111332075D01*
X239979000Y-111171925D01*
X240010242Y-111014858D01*
X240071529Y-110866899D01*
X240160499Y-110733745D01*
X240273745Y-110620499D01*
X240406899Y-110531529D01*
X240554858Y-110470242D01*
X240711925Y-110439000D01*
X240872075Y-110439000D01*
X241029142Y-110470242D01*
X241029142Y-110470242D01*
G37*
G36*
X214433254Y-106127818D02*
G01*
X214733237Y-106252075D01*
X214806513Y-106282427D01*
X215142436Y-106506884D01*
X215428116Y-106792564D01*
X215584405Y-107026466D01*
X215652574Y-107128489D01*
X215807182Y-107501746D01*
X215886000Y-107897993D01*
X215886000Y-108302007D01*
X215807182Y-108698254D01*
X215680797Y-109003375D01*
X215652573Y-109071513D01*
X215428116Y-109407436D01*
X215142436Y-109693116D01*
X214806513Y-109917573D01*
X214806512Y-109917574D01*
X214806511Y-109917574D01*
X214433254Y-110072182D01*
X214037007Y-110151000D01*
X213632993Y-110151000D01*
X213236746Y-110072182D01*
X212863489Y-109917574D01*
X212863488Y-109917574D01*
X212863487Y-109917573D01*
X212527564Y-109693116D01*
X212241884Y-109407436D01*
X212017427Y-109071513D01*
X211989203Y-109003375D01*
X211862818Y-108698254D01*
X211784000Y-108302007D01*
X211784000Y-107897993D01*
X211862818Y-107501746D01*
X212017426Y-107128489D01*
X212085596Y-107026466D01*
X212241884Y-106792564D01*
X212527564Y-106506884D01*
X212863487Y-106282427D01*
X212936763Y-106252075D01*
X213236746Y-106127818D01*
X213632993Y-106049000D01*
X214037007Y-106049000D01*
X214433254Y-106127818D01*
X214433254Y-106127818D01*
G37*
G36*
X251060443Y-108285519D02*
G01*
X251126627Y-108292037D01*
X251296466Y-108343557D01*
X251452991Y-108427222D01*
X251488729Y-108456552D01*
X251590186Y-108539814D01*
X251665778Y-108631925D01*
X251702778Y-108677009D01*
X251786443Y-108833534D01*
X251837963Y-109003373D01*
X251855359Y-109180000D01*
X251837963Y-109356627D01*
X251786443Y-109526466D01*
X251702778Y-109682991D01*
X251673448Y-109718729D01*
X251590186Y-109820186D01*
X251488729Y-109903448D01*
X251452991Y-109932778D01*
X251296466Y-110016443D01*
X251126627Y-110067963D01*
X251060442Y-110074482D01*
X250994260Y-110081000D01*
X250655740Y-110081000D01*
X250589558Y-110074482D01*
X250523373Y-110067963D01*
X250353534Y-110016443D01*
X250197009Y-109932778D01*
X250161271Y-109903448D01*
X250059814Y-109820186D01*
X249976552Y-109718729D01*
X249947222Y-109682991D01*
X249863557Y-109526466D01*
X249812037Y-109356627D01*
X249794641Y-109180000D01*
X249812037Y-109003373D01*
X249863557Y-108833534D01*
X249947222Y-108677009D01*
X249984222Y-108631925D01*
X250059814Y-108539814D01*
X250161271Y-108456552D01*
X250197009Y-108427222D01*
X250353534Y-108343557D01*
X250523373Y-108292037D01*
X250589557Y-108285519D01*
X250655740Y-108279000D01*
X250994260Y-108279000D01*
X251060443Y-108285519D01*
X251060443Y-108285519D01*
G37*
G36*
X225789142Y-107930242D02*
G01*
X225937101Y-107991529D01*
X226070255Y-108080499D01*
X226183501Y-108193745D01*
X226272471Y-108326899D01*
X226333758Y-108474858D01*
X226365000Y-108631925D01*
X226365000Y-108792075D01*
X226333758Y-108949142D01*
X226272471Y-109097101D01*
X226183501Y-109230255D01*
X226070255Y-109343501D01*
X225937101Y-109432471D01*
X225789142Y-109493758D01*
X225632075Y-109525000D01*
X225471925Y-109525000D01*
X225314858Y-109493758D01*
X225166899Y-109432471D01*
X225033745Y-109343501D01*
X224920499Y-109230255D01*
X224831529Y-109097101D01*
X224770242Y-108949142D01*
X224739000Y-108792075D01*
X224739000Y-108631925D01*
X224770242Y-108474858D01*
X224831529Y-108326899D01*
X224920499Y-108193745D01*
X225033745Y-108080499D01*
X225166899Y-107991529D01*
X225314858Y-107930242D01*
X225471925Y-107899000D01*
X225632075Y-107899000D01*
X225789142Y-107930242D01*
X225789142Y-107930242D01*
G37*
G36*
X241029142Y-107930242D02*
G01*
X241177101Y-107991529D01*
X241310255Y-108080499D01*
X241423501Y-108193745D01*
X241512471Y-108326899D01*
X241573758Y-108474858D01*
X241605000Y-108631925D01*
X241605000Y-108792075D01*
X241573758Y-108949142D01*
X241512471Y-109097101D01*
X241423501Y-109230255D01*
X241310255Y-109343501D01*
X241177101Y-109432471D01*
X241029142Y-109493758D01*
X240872075Y-109525000D01*
X240711925Y-109525000D01*
X240554858Y-109493758D01*
X240406899Y-109432471D01*
X240273745Y-109343501D01*
X240160499Y-109230255D01*
X240071529Y-109097101D01*
X240010242Y-108949142D01*
X239979000Y-108792075D01*
X239979000Y-108631925D01*
X240010242Y-108474858D01*
X240071529Y-108326899D01*
X240160499Y-108193745D01*
X240273745Y-108080499D01*
X240406899Y-107991529D01*
X240554858Y-107930242D01*
X240711925Y-107899000D01*
X240872075Y-107899000D01*
X241029142Y-107930242D01*
X241029142Y-107930242D01*
G37*
G36*
X251060443Y-105785519D02*
G01*
X251126627Y-105792037D01*
X251296466Y-105843557D01*
X251452991Y-105927222D01*
X251462294Y-105934857D01*
X251590186Y-106039814D01*
X251662408Y-106127818D01*
X251702778Y-106177009D01*
X251786443Y-106333534D01*
X251837963Y-106503373D01*
X251855359Y-106680000D01*
X251837963Y-106856627D01*
X251786443Y-107026466D01*
X251702778Y-107182991D01*
X251673448Y-107218729D01*
X251590186Y-107320186D01*
X251488729Y-107403448D01*
X251452991Y-107432778D01*
X251296466Y-107516443D01*
X251126627Y-107567963D01*
X251060443Y-107574481D01*
X250994260Y-107581000D01*
X250655740Y-107581000D01*
X250589557Y-107574481D01*
X250523373Y-107567963D01*
X250353534Y-107516443D01*
X250197009Y-107432778D01*
X250161271Y-107403448D01*
X250059814Y-107320186D01*
X249976552Y-107218729D01*
X249947222Y-107182991D01*
X249863557Y-107026466D01*
X249812037Y-106856627D01*
X249794641Y-106680000D01*
X249812037Y-106503373D01*
X249863557Y-106333534D01*
X249947222Y-106177009D01*
X249987592Y-106127818D01*
X250059814Y-106039814D01*
X250187706Y-105934857D01*
X250197009Y-105927222D01*
X250353534Y-105843557D01*
X250523373Y-105792037D01*
X250589557Y-105785519D01*
X250655740Y-105779000D01*
X250994260Y-105779000D01*
X251060443Y-105785519D01*
X251060443Y-105785519D01*
G37*
G36*
X241029142Y-105390242D02*
G01*
X241177101Y-105451529D01*
X241310255Y-105540499D01*
X241423501Y-105653745D01*
X241512471Y-105786899D01*
X241573758Y-105934858D01*
X241605000Y-106091925D01*
X241605000Y-106252075D01*
X241573758Y-106409142D01*
X241512471Y-106557101D01*
X241423501Y-106690255D01*
X241310255Y-106803501D01*
X241177101Y-106892471D01*
X241029142Y-106953758D01*
X240872075Y-106985000D01*
X240711925Y-106985000D01*
X240554858Y-106953758D01*
X240406899Y-106892471D01*
X240273745Y-106803501D01*
X240160499Y-106690255D01*
X240071529Y-106557101D01*
X240010242Y-106409142D01*
X239979000Y-106252075D01*
X239979000Y-106091925D01*
X240010242Y-105934858D01*
X240071529Y-105786899D01*
X240160499Y-105653745D01*
X240273745Y-105540499D01*
X240406899Y-105451529D01*
X240554858Y-105390242D01*
X240711925Y-105359000D01*
X240872075Y-105359000D01*
X241029142Y-105390242D01*
X241029142Y-105390242D01*
G37*
G36*
X225789142Y-105390242D02*
G01*
X225937101Y-105451529D01*
X226070255Y-105540499D01*
X226183501Y-105653745D01*
X226272471Y-105786899D01*
X226333758Y-105934858D01*
X226365000Y-106091925D01*
X226365000Y-106252075D01*
X226333758Y-106409142D01*
X226272471Y-106557101D01*
X226183501Y-106690255D01*
X226070255Y-106803501D01*
X225937101Y-106892471D01*
X225789142Y-106953758D01*
X225632075Y-106985000D01*
X225471925Y-106985000D01*
X225314858Y-106953758D01*
X225166899Y-106892471D01*
X225033745Y-106803501D01*
X224920499Y-106690255D01*
X224831529Y-106557101D01*
X224770242Y-106409142D01*
X224739000Y-106252075D01*
X224739000Y-106091925D01*
X224770242Y-105934858D01*
X224831529Y-105786899D01*
X224920499Y-105653745D01*
X225033745Y-105540499D01*
X225166899Y-105451529D01*
X225314858Y-105390242D01*
X225471925Y-105359000D01*
X225632075Y-105359000D01*
X225789142Y-105390242D01*
X225789142Y-105390242D01*
G37*
G36*
X216739473Y-104325938D02*
G01*
X216867049Y-104378782D01*
X216981859Y-104455495D01*
X217079505Y-104553141D01*
X217156218Y-104667951D01*
X217209062Y-104795527D01*
X217236000Y-104930956D01*
X217236000Y-105069044D01*
X217209062Y-105204473D01*
X217156218Y-105332049D01*
X217079505Y-105446859D01*
X216981859Y-105544505D01*
X216867049Y-105621218D01*
X216739473Y-105674062D01*
X216604044Y-105701000D01*
X216465956Y-105701000D01*
X216330527Y-105674062D01*
X216202951Y-105621218D01*
X216088141Y-105544505D01*
X215990495Y-105446859D01*
X215913782Y-105332049D01*
X215860938Y-105204473D01*
X215834000Y-105069044D01*
X215834000Y-104930956D01*
X215860938Y-104795527D01*
X215913782Y-104667951D01*
X215990495Y-104553141D01*
X216088141Y-104455495D01*
X216202951Y-104378782D01*
X216330527Y-104325938D01*
X216465956Y-104299000D01*
X216604044Y-104299000D01*
X216739473Y-104325938D01*
X216739473Y-104325938D01*
G37*
G36*
X225789142Y-102850242D02*
G01*
X225937101Y-102911529D01*
X226070255Y-103000499D01*
X226183501Y-103113745D01*
X226272471Y-103246899D01*
X226333758Y-103394858D01*
X226365000Y-103551925D01*
X226365000Y-103712075D01*
X226333758Y-103869142D01*
X226272471Y-104017101D01*
X226183501Y-104150255D01*
X226070255Y-104263501D01*
X225937101Y-104352471D01*
X225789142Y-104413758D01*
X225632075Y-104445000D01*
X225471925Y-104445000D01*
X225314858Y-104413758D01*
X225166899Y-104352471D01*
X225033745Y-104263501D01*
X224920499Y-104150255D01*
X224831529Y-104017101D01*
X224770242Y-103869142D01*
X224739000Y-103712075D01*
X224739000Y-103551925D01*
X224770242Y-103394858D01*
X224831529Y-103246899D01*
X224920499Y-103113745D01*
X225033745Y-103000499D01*
X225166899Y-102911529D01*
X225314858Y-102850242D01*
X225471925Y-102819000D01*
X225632075Y-102819000D01*
X225789142Y-102850242D01*
X225789142Y-102850242D01*
G37*
G36*
X241029142Y-102850242D02*
G01*
X241177101Y-102911529D01*
X241310255Y-103000499D01*
X241423501Y-103113745D01*
X241512471Y-103246899D01*
X241573758Y-103394858D01*
X241605000Y-103551925D01*
X241605000Y-103712075D01*
X241573758Y-103869142D01*
X241512471Y-104017101D01*
X241423501Y-104150255D01*
X241310255Y-104263501D01*
X241177101Y-104352471D01*
X241029142Y-104413758D01*
X240872075Y-104445000D01*
X240711925Y-104445000D01*
X240554858Y-104413758D01*
X240406899Y-104352471D01*
X240273745Y-104263501D01*
X240160499Y-104150255D01*
X240071529Y-104017101D01*
X240010242Y-103869142D01*
X239979000Y-103712075D01*
X239979000Y-103551925D01*
X240010242Y-103394858D01*
X240071529Y-103246899D01*
X240160499Y-103113745D01*
X240273745Y-103000499D01*
X240406899Y-102911529D01*
X240554858Y-102850242D01*
X240711925Y-102819000D01*
X240872075Y-102819000D01*
X241029142Y-102850242D01*
X241029142Y-102850242D01*
G37*
G36*
X216739473Y-101825938D02*
G01*
X216867049Y-101878782D01*
X216981859Y-101955495D01*
X217079505Y-102053141D01*
X217156218Y-102167951D01*
X217209062Y-102295527D01*
X217236000Y-102430956D01*
X217236000Y-102569044D01*
X217209062Y-102704473D01*
X217156218Y-102832049D01*
X217079505Y-102946859D01*
X216981859Y-103044505D01*
X216867049Y-103121218D01*
X216739473Y-103174062D01*
X216604044Y-103201000D01*
X216465956Y-103201000D01*
X216330527Y-103174062D01*
X216202951Y-103121218D01*
X216088141Y-103044505D01*
X215990495Y-102946859D01*
X215913782Y-102832049D01*
X215860938Y-102704473D01*
X215834000Y-102569044D01*
X215834000Y-102430956D01*
X215860938Y-102295527D01*
X215913782Y-102167951D01*
X215990495Y-102053141D01*
X216088141Y-101955495D01*
X216202951Y-101878782D01*
X216330527Y-101825938D01*
X216465956Y-101799000D01*
X216604044Y-101799000D01*
X216739473Y-101825938D01*
X216739473Y-101825938D01*
G37*
G36*
X241029142Y-100310242D02*
G01*
X241177101Y-100371529D01*
X241310255Y-100460499D01*
X241423501Y-100573745D01*
X241512471Y-100706899D01*
X241573758Y-100854858D01*
X241605000Y-101011925D01*
X241605000Y-101172075D01*
X241573758Y-101329142D01*
X241512471Y-101477101D01*
X241423501Y-101610255D01*
X241310255Y-101723501D01*
X241177101Y-101812471D01*
X241029142Y-101873758D01*
X240872075Y-101905000D01*
X240711925Y-101905000D01*
X240554858Y-101873758D01*
X240406899Y-101812471D01*
X240273745Y-101723501D01*
X240160499Y-101610255D01*
X240071529Y-101477101D01*
X240010242Y-101329142D01*
X239979000Y-101172075D01*
X239979000Y-101011925D01*
X240010242Y-100854858D01*
X240071529Y-100706899D01*
X240160499Y-100573745D01*
X240273745Y-100460499D01*
X240406899Y-100371529D01*
X240554858Y-100310242D01*
X240711925Y-100279000D01*
X240872075Y-100279000D01*
X241029142Y-100310242D01*
X241029142Y-100310242D01*
G37*
G36*
X225789142Y-100310242D02*
G01*
X225937101Y-100371529D01*
X226070255Y-100460499D01*
X226183501Y-100573745D01*
X226272471Y-100706899D01*
X226333758Y-100854858D01*
X226365000Y-101011925D01*
X226365000Y-101172075D01*
X226333758Y-101329142D01*
X226272471Y-101477101D01*
X226183501Y-101610255D01*
X226070255Y-101723501D01*
X225937101Y-101812471D01*
X225789142Y-101873758D01*
X225632075Y-101905000D01*
X225471925Y-101905000D01*
X225314858Y-101873758D01*
X225166899Y-101812471D01*
X225033745Y-101723501D01*
X224920499Y-101610255D01*
X224831529Y-101477101D01*
X224770242Y-101329142D01*
X224739000Y-101172075D01*
X224739000Y-101011925D01*
X224770242Y-100854858D01*
X224831529Y-100706899D01*
X224920499Y-100573745D01*
X225033745Y-100460499D01*
X225166899Y-100371529D01*
X225314858Y-100310242D01*
X225471925Y-100279000D01*
X225632075Y-100279000D01*
X225789142Y-100310242D01*
X225789142Y-100310242D01*
G37*
G36*
X251708600Y-99432989D02*
G01*
X251741652Y-99443015D01*
X251772103Y-99459292D01*
X251798799Y-99481201D01*
X251820708Y-99507897D01*
X251836985Y-99538348D01*
X251847011Y-99571400D01*
X251851000Y-99611903D01*
X251851000Y-101048097D01*
X251847011Y-101088600D01*
X251836985Y-101121652D01*
X251820708Y-101152103D01*
X251798799Y-101178799D01*
X251772103Y-101200708D01*
X251741652Y-101216985D01*
X251708600Y-101227011D01*
X251668097Y-101231000D01*
X249981903Y-101231000D01*
X249941400Y-101227011D01*
X249908348Y-101216985D01*
X249877897Y-101200708D01*
X249851201Y-101178799D01*
X249829292Y-101152103D01*
X249813015Y-101121652D01*
X249802989Y-101088600D01*
X249799000Y-101048097D01*
X249799000Y-99611903D01*
X249802989Y-99571400D01*
X249813015Y-99538348D01*
X249829292Y-99507897D01*
X249851201Y-99481201D01*
X249877897Y-99459292D01*
X249908348Y-99443015D01*
X249941400Y-99432989D01*
X249981903Y-99429000D01*
X251668097Y-99429000D01*
X251708600Y-99432989D01*
X251708600Y-99432989D01*
G37*
G36*
X216739473Y-99825938D02*
G01*
X216867049Y-99878782D01*
X216981859Y-99955495D01*
X217079505Y-100053141D01*
X217156218Y-100167951D01*
X217209062Y-100295527D01*
X217236000Y-100430956D01*
X217236000Y-100569044D01*
X217209062Y-100704473D01*
X217156218Y-100832049D01*
X217079505Y-100946859D01*
X216981859Y-101044505D01*
X216867049Y-101121218D01*
X216739473Y-101174062D01*
X216604044Y-101201000D01*
X216465956Y-101201000D01*
X216330527Y-101174062D01*
X216202951Y-101121218D01*
X216088141Y-101044505D01*
X215990495Y-100946859D01*
X215913782Y-100832049D01*
X215860938Y-100704473D01*
X215834000Y-100569044D01*
X215834000Y-100430956D01*
X215860938Y-100295527D01*
X215913782Y-100167951D01*
X215990495Y-100053141D01*
X216088141Y-99955495D01*
X216202951Y-99878782D01*
X216330527Y-99825938D01*
X216465956Y-99799000D01*
X216604044Y-99799000D01*
X216739473Y-99825938D01*
X216739473Y-99825938D01*
G37*
G36*
X225789142Y-97770242D02*
G01*
X225937101Y-97831529D01*
X226070255Y-97920499D01*
X226183501Y-98033745D01*
X226272471Y-98166899D01*
X226333758Y-98314858D01*
X226365000Y-98471925D01*
X226365000Y-98632075D01*
X226333758Y-98789142D01*
X226272471Y-98937101D01*
X226183501Y-99070255D01*
X226070255Y-99183501D01*
X225937101Y-99272471D01*
X225789142Y-99333758D01*
X225632075Y-99365000D01*
X225471925Y-99365000D01*
X225314858Y-99333758D01*
X225166899Y-99272471D01*
X225033745Y-99183501D01*
X224920499Y-99070255D01*
X224831529Y-98937101D01*
X224770242Y-98789142D01*
X224739000Y-98632075D01*
X224739000Y-98471925D01*
X224770242Y-98314858D01*
X224831529Y-98166899D01*
X224920499Y-98033745D01*
X225033745Y-97920499D01*
X225166899Y-97831529D01*
X225314858Y-97770242D01*
X225471925Y-97739000D01*
X225632075Y-97739000D01*
X225789142Y-97770242D01*
X225789142Y-97770242D01*
G37*
G36*
X241029142Y-97770242D02*
G01*
X241177101Y-97831529D01*
X241310255Y-97920499D01*
X241423501Y-98033745D01*
X241512471Y-98166899D01*
X241573758Y-98314858D01*
X241605000Y-98471925D01*
X241605000Y-98632075D01*
X241573758Y-98789142D01*
X241512471Y-98937101D01*
X241423501Y-99070255D01*
X241310255Y-99183501D01*
X241177101Y-99272471D01*
X241029142Y-99333758D01*
X240872075Y-99365000D01*
X240711925Y-99365000D01*
X240554858Y-99333758D01*
X240406899Y-99272471D01*
X240273745Y-99183501D01*
X240160499Y-99070255D01*
X240071529Y-98937101D01*
X240010242Y-98789142D01*
X239979000Y-98632075D01*
X239979000Y-98471925D01*
X240010242Y-98314858D01*
X240071529Y-98166899D01*
X240160499Y-98033745D01*
X240273745Y-97920499D01*
X240406899Y-97831529D01*
X240554858Y-97770242D01*
X240711925Y-97739000D01*
X240872075Y-97739000D01*
X241029142Y-97770242D01*
X241029142Y-97770242D01*
G37*
G36*
X251060442Y-96935518D02*
G01*
X251126627Y-96942037D01*
X251296466Y-96993557D01*
X251452991Y-97077222D01*
X251488729Y-97106552D01*
X251590186Y-97189814D01*
X251673448Y-97291271D01*
X251702778Y-97327009D01*
X251786443Y-97483534D01*
X251837963Y-97653373D01*
X251855359Y-97830000D01*
X251837963Y-98006627D01*
X251786443Y-98176466D01*
X251702778Y-98332991D01*
X251673448Y-98368729D01*
X251590186Y-98470186D01*
X251488729Y-98553448D01*
X251452991Y-98582778D01*
X251296466Y-98666443D01*
X251126627Y-98717963D01*
X251060443Y-98724481D01*
X250994260Y-98731000D01*
X250655740Y-98731000D01*
X250589557Y-98724481D01*
X250523373Y-98717963D01*
X250353534Y-98666443D01*
X250197009Y-98582778D01*
X250161271Y-98553448D01*
X250059814Y-98470186D01*
X249976552Y-98368729D01*
X249947222Y-98332991D01*
X249863557Y-98176466D01*
X249812037Y-98006627D01*
X249794641Y-97830000D01*
X249812037Y-97653373D01*
X249863557Y-97483534D01*
X249947222Y-97327009D01*
X249976552Y-97291271D01*
X250059814Y-97189814D01*
X250161271Y-97106552D01*
X250197009Y-97077222D01*
X250353534Y-96993557D01*
X250523373Y-96942037D01*
X250589558Y-96935518D01*
X250655740Y-96929000D01*
X250994260Y-96929000D01*
X251060442Y-96935518D01*
X251060442Y-96935518D01*
G37*
G36*
X217236000Y-98701000D02*
G01*
X215834000Y-98701000D01*
X215834000Y-97299000D01*
X217236000Y-97299000D01*
X217236000Y-98701000D01*
X217236000Y-98701000D01*
G37*
G36*
X214433254Y-92927818D02*
G01*
X214806511Y-93082426D01*
X214806513Y-93082427D01*
X215142436Y-93306884D01*
X215428116Y-93592564D01*
X215604874Y-93857100D01*
X215652574Y-93928489D01*
X215807182Y-94301746D01*
X215886000Y-94697993D01*
X215886000Y-95102007D01*
X215807182Y-95498254D01*
X215753895Y-95626900D01*
X215652573Y-95871513D01*
X215428116Y-96207436D01*
X215142436Y-96493116D01*
X214806513Y-96717573D01*
X214806512Y-96717574D01*
X214806511Y-96717574D01*
X214433254Y-96872182D01*
X214037007Y-96951000D01*
X213632993Y-96951000D01*
X213236746Y-96872182D01*
X212863489Y-96717574D01*
X212863488Y-96717574D01*
X212863487Y-96717573D01*
X212527564Y-96493116D01*
X212241884Y-96207436D01*
X212017427Y-95871513D01*
X211916105Y-95626900D01*
X211862818Y-95498254D01*
X211784000Y-95102007D01*
X211784000Y-94697993D01*
X211862818Y-94301746D01*
X212017426Y-93928489D01*
X212065127Y-93857100D01*
X212241884Y-93592564D01*
X212527564Y-93306884D01*
X212863487Y-93082427D01*
X212863489Y-93082426D01*
X213236746Y-92927818D01*
X213632993Y-92849000D01*
X214037007Y-92849000D01*
X214433254Y-92927818D01*
X214433254Y-92927818D01*
G37*
G36*
X225789142Y-95230242D02*
G01*
X225937101Y-95291529D01*
X226070255Y-95380499D01*
X226183501Y-95493745D01*
X226272471Y-95626899D01*
X226333758Y-95774858D01*
X226365000Y-95931925D01*
X226365000Y-96092075D01*
X226333758Y-96249142D01*
X226272471Y-96397101D01*
X226183501Y-96530255D01*
X226070255Y-96643501D01*
X225937101Y-96732471D01*
X225789142Y-96793758D01*
X225632075Y-96825000D01*
X225471925Y-96825000D01*
X225314858Y-96793758D01*
X225166899Y-96732471D01*
X225033745Y-96643501D01*
X224920499Y-96530255D01*
X224831529Y-96397101D01*
X224770242Y-96249142D01*
X224739000Y-96092075D01*
X224739000Y-95931925D01*
X224770242Y-95774858D01*
X224831529Y-95626899D01*
X224920499Y-95493745D01*
X225033745Y-95380499D01*
X225166899Y-95291529D01*
X225314858Y-95230242D01*
X225471925Y-95199000D01*
X225632075Y-95199000D01*
X225789142Y-95230242D01*
X225789142Y-95230242D01*
G37*
G36*
X241029142Y-95230242D02*
G01*
X241177101Y-95291529D01*
X241310255Y-95380499D01*
X241423501Y-95493745D01*
X241512471Y-95626899D01*
X241573758Y-95774858D01*
X241605000Y-95931925D01*
X241605000Y-96092075D01*
X241573758Y-96249142D01*
X241512471Y-96397101D01*
X241423501Y-96530255D01*
X241310255Y-96643501D01*
X241177101Y-96732471D01*
X241029142Y-96793758D01*
X240872075Y-96825000D01*
X240711925Y-96825000D01*
X240554858Y-96793758D01*
X240406899Y-96732471D01*
X240273745Y-96643501D01*
X240160499Y-96530255D01*
X240071529Y-96397101D01*
X240010242Y-96249142D01*
X239979000Y-96092075D01*
X239979000Y-95931925D01*
X240010242Y-95774858D01*
X240071529Y-95626899D01*
X240160499Y-95493745D01*
X240273745Y-95380499D01*
X240406899Y-95291529D01*
X240554858Y-95230242D01*
X240711925Y-95199000D01*
X240872075Y-95199000D01*
X241029142Y-95230242D01*
X241029142Y-95230242D01*
G37*
G36*
X251060442Y-94435518D02*
G01*
X251126627Y-94442037D01*
X251296466Y-94493557D01*
X251452991Y-94577222D01*
X251488729Y-94606552D01*
X251590186Y-94689814D01*
X251673448Y-94791271D01*
X251702778Y-94827009D01*
X251786443Y-94983534D01*
X251837963Y-95153373D01*
X251855359Y-95330000D01*
X251837963Y-95506627D01*
X251786443Y-95676466D01*
X251702778Y-95832991D01*
X251673448Y-95868729D01*
X251590186Y-95970186D01*
X251488729Y-96053448D01*
X251452991Y-96082778D01*
X251296466Y-96166443D01*
X251126627Y-96217963D01*
X251060442Y-96224482D01*
X250994260Y-96231000D01*
X250655740Y-96231000D01*
X250589558Y-96224482D01*
X250523373Y-96217963D01*
X250353534Y-96166443D01*
X250197009Y-96082778D01*
X250161271Y-96053448D01*
X250059814Y-95970186D01*
X249976552Y-95868729D01*
X249947222Y-95832991D01*
X249863557Y-95676466D01*
X249812037Y-95506627D01*
X249794641Y-95330000D01*
X249812037Y-95153373D01*
X249863557Y-94983534D01*
X249947222Y-94827009D01*
X249976552Y-94791271D01*
X250059814Y-94689814D01*
X250161271Y-94606552D01*
X250197009Y-94577222D01*
X250353534Y-94493557D01*
X250523373Y-94442037D01*
X250589558Y-94435518D01*
X250655740Y-94429000D01*
X250994260Y-94429000D01*
X251060442Y-94435518D01*
X251060442Y-94435518D01*
G37*
G36*
X241029142Y-92690242D02*
G01*
X241177101Y-92751529D01*
X241310255Y-92840499D01*
X241423501Y-92953745D01*
X241512471Y-93086899D01*
X241573758Y-93234858D01*
X241605000Y-93391925D01*
X241605000Y-93552075D01*
X241573758Y-93709142D01*
X241512471Y-93857101D01*
X241423501Y-93990255D01*
X241310255Y-94103501D01*
X241177101Y-94192471D01*
X241029142Y-94253758D01*
X240872075Y-94285000D01*
X240711925Y-94285000D01*
X240554858Y-94253758D01*
X240406899Y-94192471D01*
X240273745Y-94103501D01*
X240160499Y-93990255D01*
X240071529Y-93857101D01*
X240010242Y-93709142D01*
X239979000Y-93552075D01*
X239979000Y-93391925D01*
X240010242Y-93234858D01*
X240071529Y-93086899D01*
X240160499Y-92953745D01*
X240273745Y-92840499D01*
X240406899Y-92751529D01*
X240554858Y-92690242D01*
X240711925Y-92659000D01*
X240872075Y-92659000D01*
X241029142Y-92690242D01*
X241029142Y-92690242D01*
G37*
G36*
X225789142Y-92690242D02*
G01*
X225937101Y-92751529D01*
X226070255Y-92840499D01*
X226183501Y-92953745D01*
X226272471Y-93086899D01*
X226333758Y-93234858D01*
X226365000Y-93391925D01*
X226365000Y-93552075D01*
X226333758Y-93709142D01*
X226272471Y-93857101D01*
X226183501Y-93990255D01*
X226070255Y-94103501D01*
X225937101Y-94192471D01*
X225789142Y-94253758D01*
X225632075Y-94285000D01*
X225471925Y-94285000D01*
X225314858Y-94253758D01*
X225166899Y-94192471D01*
X225033745Y-94103501D01*
X224920499Y-93990255D01*
X224831529Y-93857101D01*
X224770242Y-93709142D01*
X224739000Y-93552075D01*
X224739000Y-93391925D01*
X224770242Y-93234858D01*
X224831529Y-93086899D01*
X224920499Y-92953745D01*
X225033745Y-92840499D01*
X225166899Y-92751529D01*
X225314858Y-92690242D01*
X225471925Y-92659000D01*
X225632075Y-92659000D01*
X225789142Y-92690242D01*
X225789142Y-92690242D01*
G37*
G36*
X225789142Y-90150242D02*
G01*
X225937101Y-90211529D01*
X226070255Y-90300499D01*
X226183501Y-90413745D01*
X226272471Y-90546899D01*
X226333758Y-90694858D01*
X226365000Y-90851925D01*
X226365000Y-91012075D01*
X226333758Y-91169142D01*
X226272471Y-91317101D01*
X226183501Y-91450255D01*
X226070255Y-91563501D01*
X225937101Y-91652471D01*
X225789142Y-91713758D01*
X225632075Y-91745000D01*
X225471925Y-91745000D01*
X225314858Y-91713758D01*
X225166899Y-91652471D01*
X225033745Y-91563501D01*
X224920499Y-91450255D01*
X224831529Y-91317101D01*
X224770242Y-91169142D01*
X224739000Y-91012075D01*
X224739000Y-90851925D01*
X224770242Y-90694858D01*
X224831529Y-90546899D01*
X224920499Y-90413745D01*
X225033745Y-90300499D01*
X225166899Y-90211529D01*
X225314858Y-90150242D01*
X225471925Y-90119000D01*
X225632075Y-90119000D01*
X225789142Y-90150242D01*
X225789142Y-90150242D01*
G37*
G36*
X241029142Y-90150242D02*
G01*
X241177101Y-90211529D01*
X241310255Y-90300499D01*
X241423501Y-90413745D01*
X241512471Y-90546899D01*
X241573758Y-90694858D01*
X241605000Y-90851925D01*
X241605000Y-91012075D01*
X241573758Y-91169142D01*
X241512471Y-91317101D01*
X241423501Y-91450255D01*
X241310255Y-91563501D01*
X241177101Y-91652471D01*
X241029142Y-91713758D01*
X240872075Y-91745000D01*
X240711925Y-91745000D01*
X240554858Y-91713758D01*
X240406899Y-91652471D01*
X240273745Y-91563501D01*
X240160499Y-91450255D01*
X240071529Y-91317101D01*
X240010242Y-91169142D01*
X239979000Y-91012075D01*
X239979000Y-90851925D01*
X240010242Y-90694858D01*
X240071529Y-90546899D01*
X240160499Y-90413745D01*
X240273745Y-90300499D01*
X240406899Y-90211529D01*
X240554858Y-90150242D01*
X240711925Y-90119000D01*
X240872075Y-90119000D01*
X241029142Y-90150242D01*
X241029142Y-90150242D01*
G37*
G36*
X235277665Y-89168622D02*
G01*
X235351222Y-89175867D01*
X235492786Y-89218810D01*
X235623252Y-89288546D01*
X235653040Y-89312992D01*
X235737607Y-89382393D01*
X235807008Y-89466960D01*
X235831454Y-89496748D01*
X235901190Y-89627214D01*
X235944133Y-89768778D01*
X235958633Y-89916000D01*
X235944133Y-90063222D01*
X235901190Y-90204786D01*
X235831454Y-90335252D01*
X235807008Y-90365040D01*
X235737607Y-90449607D01*
X235653040Y-90519008D01*
X235623252Y-90543454D01*
X235492786Y-90613190D01*
X235351222Y-90656133D01*
X235277665Y-90663378D01*
X235240888Y-90667000D01*
X235167112Y-90667000D01*
X235130335Y-90663378D01*
X235056778Y-90656133D01*
X234915214Y-90613190D01*
X234784748Y-90543454D01*
X234754960Y-90519008D01*
X234670393Y-90449607D01*
X234600992Y-90365040D01*
X234576546Y-90335252D01*
X234506810Y-90204786D01*
X234463867Y-90063222D01*
X234449367Y-89916000D01*
X234463867Y-89768778D01*
X234506810Y-89627214D01*
X234576546Y-89496748D01*
X234600992Y-89466960D01*
X234670393Y-89382393D01*
X234754960Y-89312992D01*
X234784748Y-89288546D01*
X234915214Y-89218810D01*
X235056778Y-89175867D01*
X235130335Y-89168622D01*
X235167112Y-89165000D01*
X235240888Y-89165000D01*
X235277665Y-89168622D01*
X235277665Y-89168622D01*
G37*
G36*
X241029142Y-87610242D02*
G01*
X241177101Y-87671529D01*
X241310255Y-87760499D01*
X241423501Y-87873745D01*
X241512471Y-88006899D01*
X241573758Y-88154858D01*
X241605000Y-88311925D01*
X241605000Y-88472075D01*
X241573758Y-88629142D01*
X241512471Y-88777101D01*
X241423501Y-88910255D01*
X241310255Y-89023501D01*
X241177101Y-89112471D01*
X241029142Y-89173758D01*
X240872075Y-89205000D01*
X240711925Y-89205000D01*
X240554858Y-89173758D01*
X240406899Y-89112471D01*
X240273745Y-89023501D01*
X240160499Y-88910255D01*
X240071529Y-88777101D01*
X240010242Y-88629142D01*
X239979000Y-88472075D01*
X239979000Y-88311925D01*
X240010242Y-88154858D01*
X240071529Y-88006899D01*
X240160499Y-87873745D01*
X240273745Y-87760499D01*
X240406899Y-87671529D01*
X240554858Y-87610242D01*
X240711925Y-87579000D01*
X240872075Y-87579000D01*
X241029142Y-87610242D01*
X241029142Y-87610242D01*
G37*
G36*
X225789142Y-87610242D02*
G01*
X225937101Y-87671529D01*
X226070255Y-87760499D01*
X226183501Y-87873745D01*
X226272471Y-88006899D01*
X226333758Y-88154858D01*
X226365000Y-88311925D01*
X226365000Y-88472075D01*
X226333758Y-88629142D01*
X226272471Y-88777101D01*
X226183501Y-88910255D01*
X226070255Y-89023501D01*
X225937101Y-89112471D01*
X225789142Y-89173758D01*
X225632075Y-89205000D01*
X225471925Y-89205000D01*
X225314858Y-89173758D01*
X225166899Y-89112471D01*
X225033745Y-89023501D01*
X224920499Y-88910255D01*
X224831529Y-88777101D01*
X224770242Y-88629142D01*
X224739000Y-88472075D01*
X224739000Y-88311925D01*
X224770242Y-88154858D01*
X224831529Y-88006899D01*
X224920499Y-87873745D01*
X225033745Y-87760499D01*
X225166899Y-87671529D01*
X225314858Y-87610242D01*
X225471925Y-87579000D01*
X225632075Y-87579000D01*
X225789142Y-87610242D01*
X225789142Y-87610242D01*
G37*
G36*
X213595443Y-87250519D02*
G01*
X213661627Y-87257037D01*
X213831466Y-87308557D01*
X213987991Y-87392222D01*
X214023729Y-87421552D01*
X214125186Y-87504814D01*
X214206500Y-87603897D01*
X214237778Y-87642009D01*
X214321443Y-87798534D01*
X214372963Y-87968373D01*
X214390359Y-88145000D01*
X214372963Y-88321627D01*
X214321443Y-88491466D01*
X214237778Y-88647991D01*
X214208448Y-88683729D01*
X214125186Y-88785186D01*
X214041732Y-88853674D01*
X213987991Y-88897778D01*
X213831466Y-88981443D01*
X213661627Y-89032963D01*
X213595443Y-89039481D01*
X213529260Y-89046000D01*
X213190740Y-89046000D01*
X213124557Y-89039481D01*
X213058373Y-89032963D01*
X212888534Y-88981443D01*
X212732009Y-88897778D01*
X212678268Y-88853674D01*
X212594814Y-88785186D01*
X212511552Y-88683729D01*
X212482222Y-88647991D01*
X212398557Y-88491466D01*
X212347037Y-88321627D01*
X212329641Y-88145000D01*
X212347037Y-87968373D01*
X212398557Y-87798534D01*
X212482222Y-87642009D01*
X212513500Y-87603897D01*
X212594814Y-87504814D01*
X212696271Y-87421552D01*
X212732009Y-87392222D01*
X212888534Y-87308557D01*
X213058373Y-87257037D01*
X213124557Y-87250519D01*
X213190740Y-87244000D01*
X213529260Y-87244000D01*
X213595443Y-87250519D01*
X213595443Y-87250519D01*
G37*
G36*
X219402674Y-87518465D02*
G01*
X219440367Y-87529899D01*
X219475103Y-87548466D01*
X219505548Y-87573452D01*
X219530534Y-87603897D01*
X219549101Y-87638633D01*
X219560535Y-87676326D01*
X219565000Y-87721661D01*
X219565000Y-88808339D01*
X219560535Y-88853674D01*
X219549101Y-88891367D01*
X219530534Y-88926103D01*
X219505548Y-88956548D01*
X219475103Y-88981534D01*
X219440367Y-89000101D01*
X219402674Y-89011535D01*
X219357339Y-89016000D01*
X218520661Y-89016000D01*
X218475326Y-89011535D01*
X218437633Y-89000101D01*
X218402897Y-88981534D01*
X218372452Y-88956548D01*
X218347466Y-88926103D01*
X218328899Y-88891367D01*
X218317465Y-88853674D01*
X218313000Y-88808339D01*
X218313000Y-87721661D01*
X218317465Y-87676326D01*
X218328899Y-87638633D01*
X218347466Y-87603897D01*
X218372452Y-87573452D01*
X218402897Y-87548466D01*
X218437633Y-87529899D01*
X218475326Y-87518465D01*
X218520661Y-87514000D01*
X219357339Y-87514000D01*
X219402674Y-87518465D01*
X219402674Y-87518465D01*
G37*
G36*
X230315674Y-87518465D02*
G01*
X230353367Y-87529899D01*
X230388103Y-87548466D01*
X230418548Y-87573452D01*
X230443534Y-87603897D01*
X230462101Y-87638633D01*
X230473535Y-87676326D01*
X230478000Y-87721661D01*
X230478000Y-88808339D01*
X230473535Y-88853674D01*
X230462101Y-88891367D01*
X230443534Y-88926103D01*
X230418548Y-88956548D01*
X230388103Y-88981534D01*
X230353367Y-89000101D01*
X230315674Y-89011535D01*
X230270339Y-89016000D01*
X229433661Y-89016000D01*
X229388326Y-89011535D01*
X229350633Y-89000101D01*
X229315897Y-88981534D01*
X229285452Y-88956548D01*
X229260466Y-88926103D01*
X229241899Y-88891367D01*
X229230465Y-88853674D01*
X229226000Y-88808339D01*
X229226000Y-87721661D01*
X229230465Y-87676326D01*
X229241899Y-87638633D01*
X229260466Y-87603897D01*
X229285452Y-87573452D01*
X229315897Y-87548466D01*
X229350633Y-87529899D01*
X229388326Y-87518465D01*
X229433661Y-87514000D01*
X230270339Y-87514000D01*
X230315674Y-87518465D01*
X230315674Y-87518465D01*
G37*
G36*
X221452674Y-87518465D02*
G01*
X221490367Y-87529899D01*
X221525103Y-87548466D01*
X221555548Y-87573452D01*
X221580534Y-87603897D01*
X221599101Y-87638633D01*
X221610535Y-87676326D01*
X221615000Y-87721661D01*
X221615000Y-88808339D01*
X221610535Y-88853674D01*
X221599101Y-88891367D01*
X221580534Y-88926103D01*
X221555548Y-88956548D01*
X221525103Y-88981534D01*
X221490367Y-89000101D01*
X221452674Y-89011535D01*
X221407339Y-89016000D01*
X220570661Y-89016000D01*
X220525326Y-89011535D01*
X220487633Y-89000101D01*
X220452897Y-88981534D01*
X220422452Y-88956548D01*
X220397466Y-88926103D01*
X220378899Y-88891367D01*
X220367465Y-88853674D01*
X220363000Y-88808339D01*
X220363000Y-87721661D01*
X220367465Y-87676326D01*
X220378899Y-87638633D01*
X220397466Y-87603897D01*
X220422452Y-87573452D01*
X220452897Y-87548466D01*
X220487633Y-87529899D01*
X220525326Y-87518465D01*
X220570661Y-87514000D01*
X221407339Y-87514000D01*
X221452674Y-87518465D01*
X221452674Y-87518465D01*
G37*
G36*
X232365674Y-87518465D02*
G01*
X232403367Y-87529899D01*
X232438103Y-87548466D01*
X232468548Y-87573452D01*
X232493534Y-87603897D01*
X232512101Y-87638633D01*
X232523535Y-87676326D01*
X232528000Y-87721661D01*
X232528000Y-88808339D01*
X232523535Y-88853674D01*
X232512101Y-88891367D01*
X232493534Y-88926103D01*
X232468548Y-88956548D01*
X232438103Y-88981534D01*
X232403367Y-89000101D01*
X232365674Y-89011535D01*
X232320339Y-89016000D01*
X231483661Y-89016000D01*
X231438326Y-89011535D01*
X231400633Y-89000101D01*
X231365897Y-88981534D01*
X231335452Y-88956548D01*
X231310466Y-88926103D01*
X231291899Y-88891367D01*
X231280465Y-88853674D01*
X231276000Y-88808339D01*
X231276000Y-87721661D01*
X231280465Y-87676326D01*
X231291899Y-87638633D01*
X231310466Y-87603897D01*
X231335452Y-87573452D01*
X231365897Y-87548466D01*
X231400633Y-87529899D01*
X231438326Y-87518465D01*
X231483661Y-87514000D01*
X232320339Y-87514000D01*
X232365674Y-87518465D01*
X232365674Y-87518465D01*
G37*
G36*
X241029142Y-85070242D02*
G01*
X241177101Y-85131529D01*
X241310255Y-85220499D01*
X241423501Y-85333745D01*
X241512471Y-85466899D01*
X241573758Y-85614858D01*
X241605000Y-85771925D01*
X241605000Y-85932075D01*
X241573758Y-86089142D01*
X241512471Y-86237101D01*
X241423501Y-86370255D01*
X241310255Y-86483501D01*
X241177101Y-86572471D01*
X241029142Y-86633758D01*
X240872075Y-86665000D01*
X240711925Y-86665000D01*
X240554858Y-86633758D01*
X240406899Y-86572471D01*
X240273745Y-86483501D01*
X240160499Y-86370255D01*
X240071529Y-86237101D01*
X240010242Y-86089142D01*
X239979000Y-85932075D01*
X239979000Y-85771925D01*
X240010242Y-85614858D01*
X240071529Y-85466899D01*
X240160499Y-85333745D01*
X240273745Y-85220499D01*
X240406899Y-85131529D01*
X240554858Y-85070242D01*
X240711925Y-85039000D01*
X240872075Y-85039000D01*
X241029142Y-85070242D01*
X241029142Y-85070242D01*
G37*
G36*
X225789142Y-85070242D02*
G01*
X225937101Y-85131529D01*
X226070255Y-85220499D01*
X226183501Y-85333745D01*
X226272471Y-85466899D01*
X226333758Y-85614858D01*
X226365000Y-85771925D01*
X226365000Y-85932075D01*
X226333758Y-86089142D01*
X226272471Y-86237101D01*
X226183501Y-86370255D01*
X226070255Y-86483501D01*
X225937101Y-86572471D01*
X225789142Y-86633758D01*
X225632075Y-86665000D01*
X225471925Y-86665000D01*
X225314858Y-86633758D01*
X225166899Y-86572471D01*
X225033745Y-86483501D01*
X224920499Y-86370255D01*
X224831529Y-86237101D01*
X224770242Y-86089142D01*
X224739000Y-85932075D01*
X224739000Y-85771925D01*
X224770242Y-85614858D01*
X224831529Y-85466899D01*
X224920499Y-85333745D01*
X225033745Y-85220499D01*
X225166899Y-85131529D01*
X225314858Y-85070242D01*
X225471925Y-85039000D01*
X225632075Y-85039000D01*
X225789142Y-85070242D01*
X225789142Y-85070242D01*
G37*
G36*
X213595442Y-84750518D02*
G01*
X213661627Y-84757037D01*
X213831466Y-84808557D01*
X213831468Y-84808558D01*
X213909729Y-84850390D01*
X213987991Y-84892222D01*
X214009613Y-84909967D01*
X214125186Y-85004814D01*
X214178881Y-85070243D01*
X214237778Y-85142009D01*
X214321443Y-85298534D01*
X214372963Y-85468373D01*
X214390359Y-85645000D01*
X214372963Y-85821627D01*
X214321443Y-85991466D01*
X214237778Y-86147991D01*
X214208448Y-86183729D01*
X214125186Y-86285186D01*
X214035287Y-86358963D01*
X213987991Y-86397778D01*
X213987989Y-86397779D01*
X213850003Y-86471535D01*
X213831466Y-86481443D01*
X213661627Y-86532963D01*
X213595442Y-86539482D01*
X213529260Y-86546000D01*
X213190740Y-86546000D01*
X213124558Y-86539482D01*
X213058373Y-86532963D01*
X212888534Y-86481443D01*
X212869998Y-86471535D01*
X212732011Y-86397779D01*
X212732009Y-86397778D01*
X212684713Y-86358963D01*
X212594814Y-86285186D01*
X212511552Y-86183729D01*
X212482222Y-86147991D01*
X212398557Y-85991466D01*
X212347037Y-85821627D01*
X212329641Y-85645000D01*
X212347037Y-85468373D01*
X212398557Y-85298534D01*
X212482222Y-85142009D01*
X212541119Y-85070243D01*
X212594814Y-85004814D01*
X212710387Y-84909967D01*
X212732009Y-84892222D01*
X212810271Y-84850390D01*
X212888532Y-84808558D01*
X212888534Y-84808557D01*
X213058373Y-84757037D01*
X213124558Y-84750518D01*
X213190740Y-84744000D01*
X213529260Y-84744000D01*
X213595442Y-84750518D01*
X213595442Y-84750518D01*
G37*
G36*
X232365674Y-84978465D02*
G01*
X232403367Y-84989899D01*
X232438103Y-85008466D01*
X232468548Y-85033452D01*
X232493534Y-85063897D01*
X232512101Y-85098633D01*
X232523535Y-85136326D01*
X232528000Y-85181661D01*
X232528000Y-86268339D01*
X232523535Y-86313674D01*
X232512101Y-86351367D01*
X232493534Y-86386103D01*
X232468548Y-86416548D01*
X232438103Y-86441534D01*
X232403367Y-86460101D01*
X232365674Y-86471535D01*
X232320339Y-86476000D01*
X231483661Y-86476000D01*
X231438326Y-86471535D01*
X231400633Y-86460101D01*
X231365897Y-86441534D01*
X231335452Y-86416548D01*
X231310466Y-86386103D01*
X231291899Y-86351367D01*
X231280465Y-86313674D01*
X231276000Y-86268339D01*
X231276000Y-85181661D01*
X231280465Y-85136326D01*
X231291899Y-85098633D01*
X231310466Y-85063897D01*
X231335452Y-85033452D01*
X231365897Y-85008466D01*
X231400633Y-84989899D01*
X231438326Y-84978465D01*
X231483661Y-84974000D01*
X232320339Y-84974000D01*
X232365674Y-84978465D01*
X232365674Y-84978465D01*
G37*
G36*
X230315674Y-84978465D02*
G01*
X230353367Y-84989899D01*
X230388103Y-85008466D01*
X230418548Y-85033452D01*
X230443534Y-85063897D01*
X230462101Y-85098633D01*
X230473535Y-85136326D01*
X230478000Y-85181661D01*
X230478000Y-86268339D01*
X230473535Y-86313674D01*
X230462101Y-86351367D01*
X230443534Y-86386103D01*
X230418548Y-86416548D01*
X230388103Y-86441534D01*
X230353367Y-86460101D01*
X230315674Y-86471535D01*
X230270339Y-86476000D01*
X229433661Y-86476000D01*
X229388326Y-86471535D01*
X229350633Y-86460101D01*
X229315897Y-86441534D01*
X229285452Y-86416548D01*
X229260466Y-86386103D01*
X229241899Y-86351367D01*
X229230465Y-86313674D01*
X229226000Y-86268339D01*
X229226000Y-85181661D01*
X229230465Y-85136326D01*
X229241899Y-85098633D01*
X229260466Y-85063897D01*
X229285452Y-85033452D01*
X229315897Y-85008466D01*
X229350633Y-84989899D01*
X229388326Y-84978465D01*
X229433661Y-84974000D01*
X230270339Y-84974000D01*
X230315674Y-84978465D01*
X230315674Y-84978465D01*
G37*
G36*
X221452674Y-84978465D02*
G01*
X221490367Y-84989899D01*
X221525103Y-85008466D01*
X221555548Y-85033452D01*
X221580534Y-85063897D01*
X221599101Y-85098633D01*
X221610535Y-85136326D01*
X221615000Y-85181661D01*
X221615000Y-86268339D01*
X221610535Y-86313674D01*
X221599101Y-86351367D01*
X221580534Y-86386103D01*
X221555548Y-86416548D01*
X221525103Y-86441534D01*
X221490367Y-86460101D01*
X221452674Y-86471535D01*
X221407339Y-86476000D01*
X220570661Y-86476000D01*
X220525326Y-86471535D01*
X220487633Y-86460101D01*
X220452897Y-86441534D01*
X220422452Y-86416548D01*
X220397466Y-86386103D01*
X220378899Y-86351367D01*
X220367465Y-86313674D01*
X220363000Y-86268339D01*
X220363000Y-85181661D01*
X220367465Y-85136326D01*
X220378899Y-85098633D01*
X220397466Y-85063897D01*
X220422452Y-85033452D01*
X220452897Y-85008466D01*
X220487633Y-84989899D01*
X220525326Y-84978465D01*
X220570661Y-84974000D01*
X221407339Y-84974000D01*
X221452674Y-84978465D01*
X221452674Y-84978465D01*
G37*
G36*
X219402674Y-84978465D02*
G01*
X219440367Y-84989899D01*
X219475103Y-85008466D01*
X219505548Y-85033452D01*
X219530534Y-85063897D01*
X219549101Y-85098633D01*
X219560535Y-85136326D01*
X219565000Y-85181661D01*
X219565000Y-86268339D01*
X219560535Y-86313674D01*
X219549101Y-86351367D01*
X219530534Y-86386103D01*
X219505548Y-86416548D01*
X219475103Y-86441534D01*
X219440367Y-86460101D01*
X219402674Y-86471535D01*
X219357339Y-86476000D01*
X218520661Y-86476000D01*
X218475326Y-86471535D01*
X218437633Y-86460101D01*
X218402897Y-86441534D01*
X218372452Y-86416548D01*
X218347466Y-86386103D01*
X218328899Y-86351367D01*
X218317465Y-86313674D01*
X218313000Y-86268339D01*
X218313000Y-85181661D01*
X218317465Y-85136326D01*
X218328899Y-85098633D01*
X218347466Y-85063897D01*
X218372452Y-85033452D01*
X218402897Y-85008466D01*
X218437633Y-84989899D01*
X218475326Y-84978465D01*
X218520661Y-84974000D01*
X219357339Y-84974000D01*
X219402674Y-84978465D01*
X219402674Y-84978465D01*
G37*
G36*
X251599000Y-86372000D02*
G01*
X249797000Y-86372000D01*
X249797000Y-84570000D01*
X251599000Y-84570000D01*
X251599000Y-86372000D01*
X251599000Y-86372000D01*
G37*
G36*
X248268443Y-84576519D02*
G01*
X248334627Y-84583037D01*
X248504466Y-84634557D01*
X248660991Y-84718222D01*
X248692401Y-84744000D01*
X248798186Y-84830814D01*
X248848581Y-84892222D01*
X248910778Y-84968009D01*
X248994443Y-85124534D01*
X249045963Y-85294373D01*
X249063359Y-85471000D01*
X249045963Y-85647627D01*
X248994443Y-85817466D01*
X248910778Y-85973991D01*
X248896435Y-85991468D01*
X248798186Y-86111186D01*
X248696729Y-86194448D01*
X248660991Y-86223778D01*
X248660989Y-86223779D01*
X248546108Y-86285185D01*
X248504466Y-86307443D01*
X248334627Y-86358963D01*
X248268443Y-86365481D01*
X248202260Y-86372000D01*
X248113740Y-86372000D01*
X248047557Y-86365481D01*
X247981373Y-86358963D01*
X247811534Y-86307443D01*
X247769893Y-86285185D01*
X247655011Y-86223779D01*
X247655009Y-86223778D01*
X247619271Y-86194448D01*
X247517814Y-86111186D01*
X247419565Y-85991468D01*
X247405222Y-85973991D01*
X247321557Y-85817466D01*
X247270037Y-85647627D01*
X247252641Y-85471000D01*
X247270037Y-85294373D01*
X247321557Y-85124534D01*
X247405222Y-84968009D01*
X247467419Y-84892222D01*
X247517814Y-84830814D01*
X247623599Y-84744000D01*
X247655009Y-84718222D01*
X247811534Y-84634557D01*
X247981373Y-84583037D01*
X248047558Y-84576518D01*
X248113740Y-84570000D01*
X248202260Y-84570000D01*
X248268443Y-84576519D01*
X248268443Y-84576519D01*
G37*
G36*
X235423059Y-84113860D02*
G01*
X235559732Y-84170472D01*
X235682735Y-84252660D01*
X235787340Y-84357265D01*
X235787341Y-84357267D01*
X235869529Y-84480270D01*
X235926140Y-84616941D01*
X235955000Y-84762032D01*
X235955000Y-84909968D01*
X235926140Y-85055059D01*
X235897363Y-85124534D01*
X235869528Y-85191732D01*
X235787340Y-85314735D01*
X235682735Y-85419340D01*
X235559732Y-85501528D01*
X235559731Y-85501529D01*
X235559730Y-85501529D01*
X235423059Y-85558140D01*
X235277968Y-85587000D01*
X235130032Y-85587000D01*
X234984941Y-85558140D01*
X234848270Y-85501529D01*
X234848269Y-85501529D01*
X234848268Y-85501528D01*
X234725265Y-85419340D01*
X234620660Y-85314735D01*
X234538472Y-85191732D01*
X234510638Y-85124534D01*
X234481860Y-85055059D01*
X234453000Y-84909968D01*
X234453000Y-84762032D01*
X234481860Y-84616941D01*
X234538471Y-84480270D01*
X234620659Y-84357267D01*
X234620660Y-84357265D01*
X234725265Y-84252660D01*
X234848268Y-84170472D01*
X234984941Y-84113860D01*
X235130032Y-84085000D01*
X235277968Y-84085000D01*
X235423059Y-84113860D01*
X235423059Y-84113860D01*
G37*
G36*
X225789142Y-82530242D02*
G01*
X225937101Y-82591529D01*
X226070255Y-82680499D01*
X226183501Y-82793745D01*
X226272471Y-82926899D01*
X226333758Y-83074858D01*
X226365000Y-83231925D01*
X226365000Y-83392075D01*
X226333758Y-83549142D01*
X226272471Y-83697101D01*
X226183501Y-83830255D01*
X226070255Y-83943501D01*
X225937101Y-84032471D01*
X225789142Y-84093758D01*
X225632075Y-84125000D01*
X225471925Y-84125000D01*
X225314858Y-84093758D01*
X225166899Y-84032471D01*
X225033745Y-83943501D01*
X224920499Y-83830255D01*
X224831529Y-83697101D01*
X224770242Y-83549142D01*
X224739000Y-83392075D01*
X224739000Y-83231925D01*
X224770242Y-83074858D01*
X224831529Y-82926899D01*
X224920499Y-82793745D01*
X225033745Y-82680499D01*
X225166899Y-82591529D01*
X225314858Y-82530242D01*
X225471925Y-82499000D01*
X225632075Y-82499000D01*
X225789142Y-82530242D01*
X225789142Y-82530242D01*
G37*
G36*
X241029142Y-82530242D02*
G01*
X241177101Y-82591529D01*
X241310255Y-82680499D01*
X241423501Y-82793745D01*
X241512471Y-82926899D01*
X241573758Y-83074858D01*
X241605000Y-83231925D01*
X241605000Y-83392075D01*
X241573758Y-83549142D01*
X241512471Y-83697101D01*
X241423501Y-83830255D01*
X241310255Y-83943501D01*
X241177101Y-84032471D01*
X241029142Y-84093758D01*
X240872075Y-84125000D01*
X240711925Y-84125000D01*
X240554858Y-84093758D01*
X240406899Y-84032471D01*
X240273745Y-83943501D01*
X240160499Y-83830255D01*
X240071529Y-83697101D01*
X240010242Y-83549142D01*
X239979000Y-83392075D01*
X239979000Y-83231925D01*
X240010242Y-83074858D01*
X240071529Y-82926899D01*
X240160499Y-82793745D01*
X240273745Y-82680499D01*
X240406899Y-82591529D01*
X240554858Y-82530242D01*
X240711925Y-82499000D01*
X240872075Y-82499000D01*
X241029142Y-82530242D01*
X241029142Y-82530242D01*
G37*
G36*
X213595443Y-82250519D02*
G01*
X213661627Y-82257037D01*
X213831466Y-82308557D01*
X213987991Y-82392222D01*
X214023729Y-82421552D01*
X214125186Y-82504814D01*
X214196350Y-82591529D01*
X214237778Y-82642009D01*
X214321443Y-82798534D01*
X214372963Y-82968373D01*
X214390359Y-83145000D01*
X214372963Y-83321627D01*
X214321443Y-83491466D01*
X214237778Y-83647991D01*
X214208448Y-83683729D01*
X214125186Y-83785186D01*
X214050957Y-83846103D01*
X213987991Y-83897778D01*
X213831466Y-83981443D01*
X213661627Y-84032963D01*
X213595443Y-84039481D01*
X213529260Y-84046000D01*
X213190740Y-84046000D01*
X213124557Y-84039481D01*
X213058373Y-84032963D01*
X212888534Y-83981443D01*
X212732009Y-83897778D01*
X212669043Y-83846103D01*
X212594814Y-83785186D01*
X212511552Y-83683729D01*
X212482222Y-83647991D01*
X212398557Y-83491466D01*
X212347037Y-83321627D01*
X212329641Y-83145000D01*
X212347037Y-82968373D01*
X212398557Y-82798534D01*
X212482222Y-82642009D01*
X212523650Y-82591529D01*
X212594814Y-82504814D01*
X212696271Y-82421552D01*
X212732009Y-82392222D01*
X212888534Y-82308557D01*
X213058373Y-82257037D01*
X213124557Y-82250519D01*
X213190740Y-82244000D01*
X213529260Y-82244000D01*
X213595443Y-82250519D01*
X213595443Y-82250519D01*
G37*
G36*
X219402674Y-82438465D02*
G01*
X219440367Y-82449899D01*
X219475103Y-82468466D01*
X219505548Y-82493452D01*
X219530534Y-82523897D01*
X219549101Y-82558633D01*
X219560535Y-82596326D01*
X219565000Y-82641661D01*
X219565000Y-83728339D01*
X219560535Y-83773674D01*
X219549101Y-83811367D01*
X219530534Y-83846103D01*
X219505548Y-83876548D01*
X219475103Y-83901534D01*
X219440367Y-83920101D01*
X219402674Y-83931535D01*
X219357339Y-83936000D01*
X218520661Y-83936000D01*
X218475326Y-83931535D01*
X218437633Y-83920101D01*
X218402897Y-83901534D01*
X218372452Y-83876548D01*
X218347466Y-83846103D01*
X218328899Y-83811367D01*
X218317465Y-83773674D01*
X218313000Y-83728339D01*
X218313000Y-82641661D01*
X218317465Y-82596326D01*
X218328899Y-82558633D01*
X218347466Y-82523897D01*
X218372452Y-82493452D01*
X218402897Y-82468466D01*
X218437633Y-82449899D01*
X218475326Y-82438465D01*
X218520661Y-82434000D01*
X219357339Y-82434000D01*
X219402674Y-82438465D01*
X219402674Y-82438465D01*
G37*
G36*
X221452674Y-82438465D02*
G01*
X221490367Y-82449899D01*
X221525103Y-82468466D01*
X221555548Y-82493452D01*
X221580534Y-82523897D01*
X221599101Y-82558633D01*
X221610535Y-82596326D01*
X221615000Y-82641661D01*
X221615000Y-83728339D01*
X221610535Y-83773674D01*
X221599101Y-83811367D01*
X221580534Y-83846103D01*
X221555548Y-83876548D01*
X221525103Y-83901534D01*
X221490367Y-83920101D01*
X221452674Y-83931535D01*
X221407339Y-83936000D01*
X220570661Y-83936000D01*
X220525326Y-83931535D01*
X220487633Y-83920101D01*
X220452897Y-83901534D01*
X220422452Y-83876548D01*
X220397466Y-83846103D01*
X220378899Y-83811367D01*
X220367465Y-83773674D01*
X220363000Y-83728339D01*
X220363000Y-82641661D01*
X220367465Y-82596326D01*
X220378899Y-82558633D01*
X220397466Y-82523897D01*
X220422452Y-82493452D01*
X220452897Y-82468466D01*
X220487633Y-82449899D01*
X220525326Y-82438465D01*
X220570661Y-82434000D01*
X221407339Y-82434000D01*
X221452674Y-82438465D01*
X221452674Y-82438465D01*
G37*
G36*
X248268442Y-82036518D02*
G01*
X248334627Y-82043037D01*
X248504466Y-82094557D01*
X248660991Y-82178222D01*
X248696729Y-82207552D01*
X248798186Y-82290814D01*
X248881407Y-82392221D01*
X248910778Y-82428009D01*
X248994443Y-82584534D01*
X249045963Y-82754373D01*
X249063359Y-82931000D01*
X249045963Y-83107627D01*
X248994443Y-83277466D01*
X248910778Y-83433991D01*
X248881448Y-83469729D01*
X248798186Y-83571186D01*
X248704600Y-83647989D01*
X248660991Y-83683778D01*
X248504466Y-83767443D01*
X248334627Y-83818963D01*
X248268442Y-83825482D01*
X248202260Y-83832000D01*
X248113740Y-83832000D01*
X248047558Y-83825482D01*
X247981373Y-83818963D01*
X247811534Y-83767443D01*
X247655009Y-83683778D01*
X247611400Y-83647989D01*
X247517814Y-83571186D01*
X247434552Y-83469729D01*
X247405222Y-83433991D01*
X247321557Y-83277466D01*
X247270037Y-83107627D01*
X247252641Y-82931000D01*
X247270037Y-82754373D01*
X247321557Y-82584534D01*
X247405222Y-82428009D01*
X247434593Y-82392221D01*
X247517814Y-82290814D01*
X247619271Y-82207552D01*
X247655009Y-82178222D01*
X247811534Y-82094557D01*
X247981373Y-82043037D01*
X248047558Y-82036518D01*
X248113740Y-82030000D01*
X248202260Y-82030000D01*
X248268442Y-82036518D01*
X248268442Y-82036518D01*
G37*
G36*
X250808442Y-82036518D02*
G01*
X250874627Y-82043037D01*
X251044466Y-82094557D01*
X251200991Y-82178222D01*
X251236729Y-82207552D01*
X251338186Y-82290814D01*
X251421407Y-82392221D01*
X251450778Y-82428009D01*
X251534443Y-82584534D01*
X251585963Y-82754373D01*
X251603359Y-82931000D01*
X251585963Y-83107627D01*
X251534443Y-83277466D01*
X251450778Y-83433991D01*
X251421448Y-83469729D01*
X251338186Y-83571186D01*
X251244600Y-83647989D01*
X251200991Y-83683778D01*
X251044466Y-83767443D01*
X250874627Y-83818963D01*
X250808442Y-83825482D01*
X250742260Y-83832000D01*
X250653740Y-83832000D01*
X250587558Y-83825482D01*
X250521373Y-83818963D01*
X250351534Y-83767443D01*
X250195009Y-83683778D01*
X250151400Y-83647989D01*
X250057814Y-83571186D01*
X249974552Y-83469729D01*
X249945222Y-83433991D01*
X249861557Y-83277466D01*
X249810037Y-83107627D01*
X249792641Y-82931000D01*
X249810037Y-82754373D01*
X249861557Y-82584534D01*
X249945222Y-82428009D01*
X249974593Y-82392221D01*
X250057814Y-82290814D01*
X250159271Y-82207552D01*
X250195009Y-82178222D01*
X250351534Y-82094557D01*
X250521373Y-82043037D01*
X250587558Y-82036518D01*
X250653740Y-82030000D01*
X250742260Y-82030000D01*
X250808442Y-82036518D01*
X250808442Y-82036518D01*
G37*
G36*
X241029142Y-79990242D02*
G01*
X241177101Y-80051529D01*
X241310255Y-80140499D01*
X241423501Y-80253745D01*
X241512471Y-80386899D01*
X241573758Y-80534858D01*
X241605000Y-80691925D01*
X241605000Y-80852075D01*
X241573758Y-81009142D01*
X241512471Y-81157101D01*
X241423501Y-81290255D01*
X241310255Y-81403501D01*
X241177101Y-81492471D01*
X241029142Y-81553758D01*
X240872075Y-81585000D01*
X240711925Y-81585000D01*
X240554858Y-81553758D01*
X240406899Y-81492471D01*
X240273745Y-81403501D01*
X240160499Y-81290255D01*
X240071529Y-81157101D01*
X240010242Y-81009142D01*
X239979000Y-80852075D01*
X239979000Y-80691925D01*
X240010242Y-80534858D01*
X240071529Y-80386899D01*
X240160499Y-80253745D01*
X240273745Y-80140499D01*
X240406899Y-80051529D01*
X240554858Y-79990242D01*
X240711925Y-79959000D01*
X240872075Y-79959000D01*
X241029142Y-79990242D01*
X241029142Y-79990242D01*
G37*
G36*
X225789142Y-79990242D02*
G01*
X225937101Y-80051529D01*
X226070255Y-80140499D01*
X226183501Y-80253745D01*
X226272471Y-80386899D01*
X226333758Y-80534858D01*
X226365000Y-80691925D01*
X226365000Y-80852075D01*
X226333758Y-81009142D01*
X226272471Y-81157101D01*
X226183501Y-81290255D01*
X226070255Y-81403501D01*
X225937101Y-81492471D01*
X225789142Y-81553758D01*
X225632075Y-81585000D01*
X225471925Y-81585000D01*
X225314858Y-81553758D01*
X225166899Y-81492471D01*
X225033745Y-81403501D01*
X224920499Y-81290255D01*
X224831529Y-81157101D01*
X224770242Y-81009142D01*
X224739000Y-80852075D01*
X224739000Y-80691925D01*
X224770242Y-80534858D01*
X224831529Y-80386899D01*
X224920499Y-80253745D01*
X225033745Y-80140499D01*
X225166899Y-80051529D01*
X225314858Y-79990242D01*
X225471925Y-79959000D01*
X225632075Y-79959000D01*
X225789142Y-79990242D01*
X225789142Y-79990242D01*
G37*
G36*
X214243600Y-79747989D02*
G01*
X214276652Y-79758015D01*
X214307103Y-79774292D01*
X214333799Y-79796201D01*
X214355708Y-79822897D01*
X214371985Y-79853348D01*
X214382011Y-79886400D01*
X214386000Y-79926903D01*
X214386000Y-81363097D01*
X214382011Y-81403600D01*
X214371985Y-81436652D01*
X214355708Y-81467103D01*
X214333799Y-81493799D01*
X214307103Y-81515708D01*
X214276652Y-81531985D01*
X214243600Y-81542011D01*
X214203097Y-81546000D01*
X212516903Y-81546000D01*
X212476400Y-81542011D01*
X212443348Y-81531985D01*
X212412897Y-81515708D01*
X212386201Y-81493799D01*
X212364292Y-81467103D01*
X212348015Y-81436652D01*
X212337989Y-81403600D01*
X212334000Y-81363097D01*
X212334000Y-79926903D01*
X212337989Y-79886400D01*
X212348015Y-79853348D01*
X212364292Y-79822897D01*
X212386201Y-79796201D01*
X212412897Y-79774292D01*
X212443348Y-79758015D01*
X212476400Y-79747989D01*
X212516903Y-79744000D01*
X214203097Y-79744000D01*
X214243600Y-79747989D01*
X214243600Y-79747989D01*
G37*
G36*
X250808443Y-79496519D02*
G01*
X250874627Y-79503037D01*
X251044466Y-79554557D01*
X251200991Y-79638222D01*
X251236729Y-79667552D01*
X251338186Y-79750814D01*
X251397342Y-79822897D01*
X251450778Y-79888009D01*
X251534443Y-80044534D01*
X251585963Y-80214373D01*
X251603359Y-80391000D01*
X251585963Y-80567627D01*
X251534443Y-80737466D01*
X251450778Y-80893991D01*
X251421448Y-80929729D01*
X251338186Y-81031186D01*
X251236729Y-81114448D01*
X251200991Y-81143778D01*
X251044466Y-81227443D01*
X250874627Y-81278963D01*
X250808442Y-81285482D01*
X250742260Y-81292000D01*
X250653740Y-81292000D01*
X250587557Y-81285481D01*
X250521373Y-81278963D01*
X250351534Y-81227443D01*
X250195009Y-81143778D01*
X250159271Y-81114448D01*
X250057814Y-81031186D01*
X249974552Y-80929729D01*
X249945222Y-80893991D01*
X249861557Y-80737466D01*
X249810037Y-80567627D01*
X249792641Y-80391000D01*
X249810037Y-80214373D01*
X249861557Y-80044534D01*
X249945222Y-79888009D01*
X249998658Y-79822897D01*
X250057814Y-79750814D01*
X250159271Y-79667552D01*
X250195009Y-79638222D01*
X250351534Y-79554557D01*
X250521373Y-79503037D01*
X250587557Y-79496519D01*
X250653740Y-79490000D01*
X250742260Y-79490000D01*
X250808443Y-79496519D01*
X250808443Y-79496519D01*
G37*
G36*
X248268443Y-79496519D02*
G01*
X248334627Y-79503037D01*
X248504466Y-79554557D01*
X248660991Y-79638222D01*
X248696729Y-79667552D01*
X248798186Y-79750814D01*
X248857342Y-79822897D01*
X248910778Y-79888009D01*
X248994443Y-80044534D01*
X249045963Y-80214373D01*
X249063359Y-80391000D01*
X249045963Y-80567627D01*
X248994443Y-80737466D01*
X248910778Y-80893991D01*
X248881448Y-80929729D01*
X248798186Y-81031186D01*
X248696729Y-81114448D01*
X248660991Y-81143778D01*
X248504466Y-81227443D01*
X248334627Y-81278963D01*
X248268443Y-81285481D01*
X248202260Y-81292000D01*
X248113740Y-81292000D01*
X248047557Y-81285481D01*
X247981373Y-81278963D01*
X247811534Y-81227443D01*
X247655009Y-81143778D01*
X247619271Y-81114448D01*
X247517814Y-81031186D01*
X247434552Y-80929729D01*
X247405222Y-80893991D01*
X247321557Y-80737466D01*
X247270037Y-80567627D01*
X247252641Y-80391000D01*
X247270037Y-80214373D01*
X247321557Y-80044534D01*
X247405222Y-79888009D01*
X247458658Y-79822897D01*
X247517814Y-79750814D01*
X247619271Y-79667552D01*
X247655009Y-79638222D01*
X247811534Y-79554557D01*
X247981373Y-79503037D01*
X248047557Y-79496519D01*
X248113740Y-79490000D01*
X248202260Y-79490000D01*
X248268443Y-79496519D01*
X248268443Y-79496519D01*
G37*
G36*
X225789142Y-77450242D02*
G01*
X225937101Y-77511529D01*
X226070255Y-77600499D01*
X226183501Y-77713745D01*
X226272471Y-77846899D01*
X226333758Y-77994858D01*
X226365000Y-78151925D01*
X226365000Y-78312075D01*
X226333758Y-78469142D01*
X226272471Y-78617101D01*
X226183501Y-78750255D01*
X226070255Y-78863501D01*
X225937101Y-78952471D01*
X225789142Y-79013758D01*
X225632075Y-79045000D01*
X225471925Y-79045000D01*
X225314858Y-79013758D01*
X225166899Y-78952471D01*
X225033745Y-78863501D01*
X224920499Y-78750255D01*
X224831529Y-78617101D01*
X224770242Y-78469142D01*
X224739000Y-78312075D01*
X224739000Y-78151925D01*
X224770242Y-77994858D01*
X224831529Y-77846899D01*
X224920499Y-77713745D01*
X225033745Y-77600499D01*
X225166899Y-77511529D01*
X225314858Y-77450242D01*
X225471925Y-77419000D01*
X225632075Y-77419000D01*
X225789142Y-77450242D01*
X225789142Y-77450242D01*
G37*
G36*
X241029142Y-77450242D02*
G01*
X241177101Y-77511529D01*
X241310255Y-77600499D01*
X241423501Y-77713745D01*
X241512471Y-77846899D01*
X241573758Y-77994858D01*
X241605000Y-78151925D01*
X241605000Y-78312075D01*
X241573758Y-78469142D01*
X241512471Y-78617101D01*
X241423501Y-78750255D01*
X241310255Y-78863501D01*
X241177101Y-78952471D01*
X241029142Y-79013758D01*
X240872075Y-79045000D01*
X240711925Y-79045000D01*
X240554858Y-79013758D01*
X240406899Y-78952471D01*
X240273745Y-78863501D01*
X240160499Y-78750255D01*
X240071529Y-78617101D01*
X240010242Y-78469142D01*
X239979000Y-78312075D01*
X239979000Y-78151925D01*
X240010242Y-77994858D01*
X240071529Y-77846899D01*
X240160499Y-77713745D01*
X240273745Y-77600499D01*
X240406899Y-77511529D01*
X240554858Y-77450242D01*
X240711925Y-77419000D01*
X240872075Y-77419000D01*
X241029142Y-77450242D01*
X241029142Y-77450242D01*
G37*
G36*
X250808442Y-76956518D02*
G01*
X250874627Y-76963037D01*
X251044466Y-77014557D01*
X251200991Y-77098222D01*
X251236729Y-77127552D01*
X251338186Y-77210814D01*
X251421448Y-77312271D01*
X251450778Y-77348009D01*
X251534443Y-77504534D01*
X251585963Y-77674373D01*
X251603359Y-77851000D01*
X251585963Y-78027627D01*
X251534443Y-78197466D01*
X251450778Y-78353991D01*
X251421448Y-78389729D01*
X251338186Y-78491186D01*
X251236729Y-78574448D01*
X251200991Y-78603778D01*
X251044466Y-78687443D01*
X250874627Y-78738963D01*
X250808443Y-78745481D01*
X250742260Y-78752000D01*
X250653740Y-78752000D01*
X250587557Y-78745481D01*
X250521373Y-78738963D01*
X250351534Y-78687443D01*
X250195009Y-78603778D01*
X250159271Y-78574448D01*
X250057814Y-78491186D01*
X249974552Y-78389729D01*
X249945222Y-78353991D01*
X249861557Y-78197466D01*
X249810037Y-78027627D01*
X249792641Y-77851000D01*
X249810037Y-77674373D01*
X249861557Y-77504534D01*
X249945222Y-77348009D01*
X249974552Y-77312271D01*
X250057814Y-77210814D01*
X250159271Y-77127552D01*
X250195009Y-77098222D01*
X250351534Y-77014557D01*
X250521373Y-76963037D01*
X250587558Y-76956518D01*
X250653740Y-76950000D01*
X250742260Y-76950000D01*
X250808442Y-76956518D01*
X250808442Y-76956518D01*
G37*
G36*
X248268442Y-76956518D02*
G01*
X248334627Y-76963037D01*
X248504466Y-77014557D01*
X248660991Y-77098222D01*
X248696729Y-77127552D01*
X248798186Y-77210814D01*
X248881448Y-77312271D01*
X248910778Y-77348009D01*
X248994443Y-77504534D01*
X249045963Y-77674373D01*
X249063359Y-77851000D01*
X249045963Y-78027627D01*
X248994443Y-78197466D01*
X248910778Y-78353991D01*
X248881448Y-78389729D01*
X248798186Y-78491186D01*
X248696729Y-78574448D01*
X248660991Y-78603778D01*
X248504466Y-78687443D01*
X248334627Y-78738963D01*
X248268443Y-78745481D01*
X248202260Y-78752000D01*
X248113740Y-78752000D01*
X248047557Y-78745481D01*
X247981373Y-78738963D01*
X247811534Y-78687443D01*
X247655009Y-78603778D01*
X247619271Y-78574448D01*
X247517814Y-78491186D01*
X247434552Y-78389729D01*
X247405222Y-78353991D01*
X247321557Y-78197466D01*
X247270037Y-78027627D01*
X247252641Y-77851000D01*
X247270037Y-77674373D01*
X247321557Y-77504534D01*
X247405222Y-77348009D01*
X247434552Y-77312271D01*
X247517814Y-77210814D01*
X247619271Y-77127552D01*
X247655009Y-77098222D01*
X247811534Y-77014557D01*
X247981373Y-76963037D01*
X248047558Y-76956518D01*
X248113740Y-76950000D01*
X248202260Y-76950000D01*
X248268442Y-76956518D01*
X248268442Y-76956518D01*
G37*
G36*
X225789142Y-74910242D02*
G01*
X225937101Y-74971529D01*
X226070255Y-75060499D01*
X226183501Y-75173745D01*
X226272471Y-75306899D01*
X226333758Y-75454858D01*
X226365000Y-75611925D01*
X226365000Y-75772075D01*
X226333758Y-75929142D01*
X226272471Y-76077101D01*
X226183501Y-76210255D01*
X226070255Y-76323501D01*
X225937101Y-76412471D01*
X225789142Y-76473758D01*
X225632075Y-76505000D01*
X225471925Y-76505000D01*
X225314858Y-76473758D01*
X225166899Y-76412471D01*
X225033745Y-76323501D01*
X224920499Y-76210255D01*
X224831529Y-76077101D01*
X224770242Y-75929142D01*
X224739000Y-75772075D01*
X224739000Y-75611925D01*
X224770242Y-75454858D01*
X224831529Y-75306899D01*
X224920499Y-75173745D01*
X225033745Y-75060499D01*
X225166899Y-74971529D01*
X225314858Y-74910242D01*
X225471925Y-74879000D01*
X225632075Y-74879000D01*
X225789142Y-74910242D01*
X225789142Y-74910242D01*
G37*
G36*
X241029142Y-74910242D02*
G01*
X241177101Y-74971529D01*
X241310255Y-75060499D01*
X241423501Y-75173745D01*
X241512471Y-75306899D01*
X241573758Y-75454858D01*
X241605000Y-75611925D01*
X241605000Y-75772075D01*
X241573758Y-75929142D01*
X241512471Y-76077101D01*
X241423501Y-76210255D01*
X241310255Y-76323501D01*
X241177101Y-76412471D01*
X241029142Y-76473758D01*
X240872075Y-76505000D01*
X240711925Y-76505000D01*
X240554858Y-76473758D01*
X240406899Y-76412471D01*
X240273745Y-76323501D01*
X240160499Y-76210255D01*
X240071529Y-76077101D01*
X240010242Y-75929142D01*
X239979000Y-75772075D01*
X239979000Y-75611925D01*
X240010242Y-75454858D01*
X240071529Y-75306899D01*
X240160499Y-75173745D01*
X240273745Y-75060499D01*
X240406899Y-74971529D01*
X240554858Y-74910242D01*
X240711925Y-74879000D01*
X240872075Y-74879000D01*
X241029142Y-74910242D01*
X241029142Y-74910242D01*
G37*
G36*
X214391440Y-71389440D02*
G01*
X209788560Y-71389440D01*
X209788560Y-66786560D01*
X214391440Y-66786560D01*
X214391440Y-71389440D01*
X214391440Y-71389440D01*
G37*
G36*
X219111304Y-66875002D02*
G01*
X219530139Y-67048489D01*
X219530141Y-67048490D01*
X219907083Y-67300355D01*
X220227645Y-67620917D01*
X220467266Y-67979534D01*
X220479511Y-67997861D01*
X220652998Y-68416696D01*
X220741440Y-68861327D01*
X220741440Y-69314673D01*
X220652998Y-69759304D01*
X220479511Y-70178139D01*
X220479510Y-70178141D01*
X220227645Y-70555083D01*
X219907083Y-70875645D01*
X219530141Y-71127510D01*
X219530140Y-71127511D01*
X219530139Y-71127511D01*
X219111304Y-71300998D01*
X218666673Y-71389440D01*
X218213327Y-71389440D01*
X217768696Y-71300998D01*
X217349861Y-71127511D01*
X217349860Y-71127511D01*
X217349859Y-71127510D01*
X216972917Y-70875645D01*
X216652355Y-70555083D01*
X216400490Y-70178141D01*
X216400489Y-70178139D01*
X216227002Y-69759304D01*
X216138560Y-69314673D01*
X216138560Y-68861327D01*
X216227002Y-68416696D01*
X216400489Y-67997861D01*
X216412735Y-67979534D01*
X216652355Y-67620917D01*
X216972917Y-67300355D01*
X217349859Y-67048490D01*
X217349861Y-67048489D01*
X217768696Y-66875002D01*
X218213327Y-66786560D01*
X218666673Y-66786560D01*
X219111304Y-66875002D01*
X219111304Y-66875002D01*
G37*
G36*
X248268442Y-67431518D02*
G01*
X248334627Y-67438037D01*
X248504466Y-67489557D01*
X248660991Y-67573222D01*
X248696729Y-67602552D01*
X248798186Y-67685814D01*
X248881448Y-67787271D01*
X248910778Y-67823009D01*
X248994443Y-67979534D01*
X249045963Y-68149373D01*
X249063359Y-68326000D01*
X249045963Y-68502627D01*
X248994443Y-68672466D01*
X248910778Y-68828991D01*
X248881448Y-68864729D01*
X248798186Y-68966186D01*
X248696729Y-69049448D01*
X248660991Y-69078778D01*
X248504466Y-69162443D01*
X248334627Y-69213963D01*
X248268443Y-69220481D01*
X248202260Y-69227000D01*
X248113740Y-69227000D01*
X248047557Y-69220481D01*
X247981373Y-69213963D01*
X247811534Y-69162443D01*
X247655009Y-69078778D01*
X247619271Y-69049448D01*
X247517814Y-68966186D01*
X247434552Y-68864729D01*
X247405222Y-68828991D01*
X247321557Y-68672466D01*
X247270037Y-68502627D01*
X247252641Y-68326000D01*
X247270037Y-68149373D01*
X247321557Y-67979534D01*
X247405222Y-67823009D01*
X247434552Y-67787271D01*
X247517814Y-67685814D01*
X247619271Y-67602552D01*
X247655009Y-67573222D01*
X247811534Y-67489557D01*
X247981373Y-67438037D01*
X248047558Y-67431518D01*
X248113740Y-67425000D01*
X248202260Y-67425000D01*
X248268442Y-67431518D01*
X248268442Y-67431518D01*
G37*
G36*
X251599000Y-69227000D02*
G01*
X249797000Y-69227000D01*
X249797000Y-67425000D01*
X251599000Y-67425000D01*
X251599000Y-69227000D01*
X251599000Y-69227000D01*
G37*
G36*
X248268442Y-64891518D02*
G01*
X248334627Y-64898037D01*
X248504466Y-64949557D01*
X248660991Y-65033222D01*
X248696729Y-65062552D01*
X248798186Y-65145814D01*
X248881448Y-65247271D01*
X248910778Y-65283009D01*
X248994443Y-65439534D01*
X249045963Y-65609373D01*
X249063359Y-65786000D01*
X249045963Y-65962627D01*
X248994443Y-66132466D01*
X248910778Y-66288991D01*
X248881448Y-66324729D01*
X248798186Y-66426186D01*
X248696729Y-66509448D01*
X248660991Y-66538778D01*
X248504466Y-66622443D01*
X248334627Y-66673963D01*
X248268442Y-66680482D01*
X248202260Y-66687000D01*
X248113740Y-66687000D01*
X248047558Y-66680482D01*
X247981373Y-66673963D01*
X247811534Y-66622443D01*
X247655009Y-66538778D01*
X247619271Y-66509448D01*
X247517814Y-66426186D01*
X247434552Y-66324729D01*
X247405222Y-66288991D01*
X247321557Y-66132466D01*
X247270037Y-65962627D01*
X247252641Y-65786000D01*
X247270037Y-65609373D01*
X247321557Y-65439534D01*
X247405222Y-65283009D01*
X247434552Y-65247271D01*
X247517814Y-65145814D01*
X247619271Y-65062552D01*
X247655009Y-65033222D01*
X247811534Y-64949557D01*
X247981373Y-64898037D01*
X248047558Y-64891518D01*
X248113740Y-64885000D01*
X248202260Y-64885000D01*
X248268442Y-64891518D01*
X248268442Y-64891518D01*
G37*
G36*
X250808442Y-64891518D02*
G01*
X250874627Y-64898037D01*
X251044466Y-64949557D01*
X251200991Y-65033222D01*
X251236729Y-65062552D01*
X251338186Y-65145814D01*
X251421448Y-65247271D01*
X251450778Y-65283009D01*
X251534443Y-65439534D01*
X251585963Y-65609373D01*
X251603359Y-65786000D01*
X251585963Y-65962627D01*
X251534443Y-66132466D01*
X251450778Y-66288991D01*
X251421448Y-66324729D01*
X251338186Y-66426186D01*
X251236729Y-66509448D01*
X251200991Y-66538778D01*
X251044466Y-66622443D01*
X250874627Y-66673963D01*
X250808442Y-66680482D01*
X250742260Y-66687000D01*
X250653740Y-66687000D01*
X250587558Y-66680482D01*
X250521373Y-66673963D01*
X250351534Y-66622443D01*
X250195009Y-66538778D01*
X250159271Y-66509448D01*
X250057814Y-66426186D01*
X249974552Y-66324729D01*
X249945222Y-66288991D01*
X249861557Y-66132466D01*
X249810037Y-65962627D01*
X249792641Y-65786000D01*
X249810037Y-65609373D01*
X249861557Y-65439534D01*
X249945222Y-65283009D01*
X249974552Y-65247271D01*
X250057814Y-65145814D01*
X250159271Y-65062552D01*
X250195009Y-65033222D01*
X250351534Y-64949557D01*
X250521373Y-64898037D01*
X250587558Y-64891518D01*
X250653740Y-64885000D01*
X250742260Y-64885000D01*
X250808442Y-64891518D01*
X250808442Y-64891518D01*
G37*
G36*
X234904228Y-64205703D02*
G01*
X235059100Y-64269853D01*
X235198481Y-64362985D01*
X235317015Y-64481519D01*
X235410147Y-64620900D01*
X235474297Y-64775772D01*
X235507000Y-64940184D01*
X235507000Y-65107816D01*
X235474297Y-65272228D01*
X235410147Y-65427100D01*
X235317015Y-65566481D01*
X235198481Y-65685015D01*
X235059100Y-65778147D01*
X234904228Y-65842297D01*
X234739816Y-65875000D01*
X234572184Y-65875000D01*
X234407772Y-65842297D01*
X234252900Y-65778147D01*
X234113519Y-65685015D01*
X233994985Y-65566481D01*
X233901853Y-65427100D01*
X233837703Y-65272228D01*
X233805000Y-65107816D01*
X233805000Y-64940184D01*
X233837703Y-64775772D01*
X233901853Y-64620900D01*
X233994985Y-64481519D01*
X234113519Y-64362985D01*
X234252900Y-64269853D01*
X234407772Y-64205703D01*
X234572184Y-64173000D01*
X234739816Y-64173000D01*
X234904228Y-64205703D01*
X234904228Y-64205703D01*
G37*
G36*
X233007000Y-65875000D02*
G01*
X231305000Y-65875000D01*
X231305000Y-64173000D01*
X233007000Y-64173000D01*
X233007000Y-65875000D01*
X233007000Y-65875000D01*
G37*
G36*
X248268443Y-62351519D02*
G01*
X248334627Y-62358037D01*
X248504466Y-62409557D01*
X248660991Y-62493222D01*
X248696729Y-62522552D01*
X248798186Y-62605814D01*
X248881448Y-62707271D01*
X248910778Y-62743009D01*
X248994443Y-62899534D01*
X249045963Y-63069373D01*
X249063359Y-63246000D01*
X249045963Y-63422627D01*
X248994443Y-63592466D01*
X248910778Y-63748991D01*
X248881448Y-63784729D01*
X248798186Y-63886186D01*
X248696729Y-63969448D01*
X248660991Y-63998778D01*
X248504466Y-64082443D01*
X248334627Y-64133963D01*
X248268443Y-64140481D01*
X248202260Y-64147000D01*
X248113740Y-64147000D01*
X248047557Y-64140481D01*
X247981373Y-64133963D01*
X247811534Y-64082443D01*
X247655009Y-63998778D01*
X247619271Y-63969448D01*
X247517814Y-63886186D01*
X247434552Y-63784729D01*
X247405222Y-63748991D01*
X247321557Y-63592466D01*
X247270037Y-63422627D01*
X247252641Y-63246000D01*
X247270037Y-63069373D01*
X247321557Y-62899534D01*
X247405222Y-62743009D01*
X247434552Y-62707271D01*
X247517814Y-62605814D01*
X247619271Y-62522552D01*
X247655009Y-62493222D01*
X247811534Y-62409557D01*
X247981373Y-62358037D01*
X248047557Y-62351519D01*
X248113740Y-62345000D01*
X248202260Y-62345000D01*
X248268443Y-62351519D01*
X248268443Y-62351519D01*
G37*
G36*
X250808443Y-62351519D02*
G01*
X250874627Y-62358037D01*
X251044466Y-62409557D01*
X251200991Y-62493222D01*
X251236729Y-62522552D01*
X251338186Y-62605814D01*
X251421448Y-62707271D01*
X251450778Y-62743009D01*
X251534443Y-62899534D01*
X251585963Y-63069373D01*
X251603359Y-63246000D01*
X251585963Y-63422627D01*
X251534443Y-63592466D01*
X251450778Y-63748991D01*
X251421448Y-63784729D01*
X251338186Y-63886186D01*
X251236729Y-63969448D01*
X251200991Y-63998778D01*
X251044466Y-64082443D01*
X250874627Y-64133963D01*
X250808443Y-64140481D01*
X250742260Y-64147000D01*
X250653740Y-64147000D01*
X250587557Y-64140481D01*
X250521373Y-64133963D01*
X250351534Y-64082443D01*
X250195009Y-63998778D01*
X250159271Y-63969448D01*
X250057814Y-63886186D01*
X249974552Y-63784729D01*
X249945222Y-63748991D01*
X249861557Y-63592466D01*
X249810037Y-63422627D01*
X249792641Y-63246000D01*
X249810037Y-63069373D01*
X249861557Y-62899534D01*
X249945222Y-62743009D01*
X249974552Y-62707271D01*
X250057814Y-62605814D01*
X250159271Y-62522552D01*
X250195009Y-62493222D01*
X250351534Y-62409557D01*
X250521373Y-62358037D01*
X250587557Y-62351519D01*
X250653740Y-62345000D01*
X250742260Y-62345000D01*
X250808443Y-62351519D01*
X250808443Y-62351519D01*
G37*
G36*
X250808443Y-59811519D02*
G01*
X250874627Y-59818037D01*
X251044466Y-59869557D01*
X251200991Y-59953222D01*
X251236729Y-59982552D01*
X251338186Y-60065814D01*
X251421448Y-60167271D01*
X251450778Y-60203009D01*
X251534443Y-60359534D01*
X251585963Y-60529373D01*
X251603359Y-60706000D01*
X251585963Y-60882627D01*
X251534443Y-61052466D01*
X251450778Y-61208991D01*
X251421448Y-61244729D01*
X251338186Y-61346186D01*
X251236729Y-61429448D01*
X251200991Y-61458778D01*
X251044466Y-61542443D01*
X250874627Y-61593963D01*
X250808442Y-61600482D01*
X250742260Y-61607000D01*
X250653740Y-61607000D01*
X250587558Y-61600482D01*
X250521373Y-61593963D01*
X250351534Y-61542443D01*
X250195009Y-61458778D01*
X250159271Y-61429448D01*
X250057814Y-61346186D01*
X249974552Y-61244729D01*
X249945222Y-61208991D01*
X249861557Y-61052466D01*
X249810037Y-60882627D01*
X249792641Y-60706000D01*
X249810037Y-60529373D01*
X249861557Y-60359534D01*
X249945222Y-60203009D01*
X249974552Y-60167271D01*
X250057814Y-60065814D01*
X250159271Y-59982552D01*
X250195009Y-59953222D01*
X250351534Y-59869557D01*
X250521373Y-59818037D01*
X250587557Y-59811519D01*
X250653740Y-59805000D01*
X250742260Y-59805000D01*
X250808443Y-59811519D01*
X250808443Y-59811519D01*
G37*
G36*
X248268443Y-59811519D02*
G01*
X248334627Y-59818037D01*
X248504466Y-59869557D01*
X248660991Y-59953222D01*
X248696729Y-59982552D01*
X248798186Y-60065814D01*
X248881448Y-60167271D01*
X248910778Y-60203009D01*
X248994443Y-60359534D01*
X249045963Y-60529373D01*
X249063359Y-60706000D01*
X249045963Y-60882627D01*
X248994443Y-61052466D01*
X248910778Y-61208991D01*
X248881448Y-61244729D01*
X248798186Y-61346186D01*
X248696729Y-61429448D01*
X248660991Y-61458778D01*
X248504466Y-61542443D01*
X248334627Y-61593963D01*
X248268442Y-61600482D01*
X248202260Y-61607000D01*
X248113740Y-61607000D01*
X248047558Y-61600482D01*
X247981373Y-61593963D01*
X247811534Y-61542443D01*
X247655009Y-61458778D01*
X247619271Y-61429448D01*
X247517814Y-61346186D01*
X247434552Y-61244729D01*
X247405222Y-61208991D01*
X247321557Y-61052466D01*
X247270037Y-60882627D01*
X247252641Y-60706000D01*
X247270037Y-60529373D01*
X247321557Y-60359534D01*
X247405222Y-60203009D01*
X247434552Y-60167271D01*
X247517814Y-60065814D01*
X247619271Y-59982552D01*
X247655009Y-59953222D01*
X247811534Y-59869557D01*
X247981373Y-59818037D01*
X248047557Y-59811519D01*
X248113740Y-59805000D01*
X248202260Y-59805000D01*
X248268443Y-59811519D01*
X248268443Y-59811519D01*
G37*
G36*
X225604564Y-55885389D02*
G01*
X225795833Y-55964615D01*
X225795835Y-55964616D01*
X225967973Y-56079635D01*
X226114365Y-56226027D01*
X226229385Y-56398167D01*
X226308611Y-56589436D01*
X226349000Y-56792484D01*
X226349000Y-56999516D01*
X226308611Y-57202564D01*
X226229385Y-57393833D01*
X226229384Y-57393835D01*
X226114365Y-57565973D01*
X225967973Y-57712365D01*
X225795835Y-57827384D01*
X225795834Y-57827385D01*
X225795833Y-57827385D01*
X225604564Y-57906611D01*
X225401516Y-57947000D01*
X225194484Y-57947000D01*
X224991436Y-57906611D01*
X224800167Y-57827385D01*
X224800166Y-57827385D01*
X224800165Y-57827384D01*
X224628027Y-57712365D01*
X224481635Y-57565973D01*
X224366616Y-57393835D01*
X224366615Y-57393833D01*
X224287389Y-57202564D01*
X224247000Y-56999516D01*
X224247000Y-56792484D01*
X224287389Y-56589436D01*
X224366615Y-56398167D01*
X224481635Y-56226027D01*
X224628027Y-56079635D01*
X224800165Y-55964616D01*
X224800167Y-55964615D01*
X224991436Y-55885389D01*
X225194484Y-55845000D01*
X225401516Y-55845000D01*
X225604564Y-55885389D01*
X225604564Y-55885389D01*
G37*
G36*
X237910823Y-53771313D02*
G01*
X238071242Y-53819976D01*
X238188751Y-53882786D01*
X238219078Y-53898996D01*
X238348659Y-54005341D01*
X238455004Y-54134922D01*
X238455005Y-54134924D01*
X238534024Y-54282758D01*
X238582687Y-54443177D01*
X238599117Y-54610000D01*
X238582687Y-54776823D01*
X238534024Y-54937242D01*
X238463114Y-55069906D01*
X238455004Y-55085078D01*
X238348659Y-55214659D01*
X238219078Y-55321004D01*
X238219076Y-55321005D01*
X238071242Y-55400024D01*
X237910823Y-55448687D01*
X237785804Y-55461000D01*
X237702196Y-55461000D01*
X237577177Y-55448687D01*
X237416758Y-55400024D01*
X237268924Y-55321005D01*
X237268922Y-55321004D01*
X237139341Y-55214659D01*
X237032996Y-55085078D01*
X237024886Y-55069906D01*
X236953976Y-54937242D01*
X236905313Y-54776823D01*
X236888883Y-54610000D01*
X236905313Y-54443177D01*
X236953976Y-54282758D01*
X237032995Y-54134924D01*
X237032996Y-54134922D01*
X237139341Y-54005341D01*
X237268922Y-53898996D01*
X237299249Y-53882786D01*
X237416758Y-53819976D01*
X237577177Y-53771313D01*
X237702196Y-53759000D01*
X237785804Y-53759000D01*
X237910823Y-53771313D01*
X237910823Y-53771313D01*
G37*
G36*
X232991665Y-52846622D02*
G01*
X233065222Y-52853867D01*
X233206786Y-52896810D01*
X233337252Y-52966546D01*
X233367040Y-52990992D01*
X233451607Y-53060393D01*
X233521008Y-53144960D01*
X233545454Y-53174748D01*
X233615190Y-53305214D01*
X233658133Y-53446778D01*
X233672633Y-53594000D01*
X233658133Y-53741222D01*
X233615190Y-53882786D01*
X233545454Y-54013252D01*
X233521008Y-54043040D01*
X233451607Y-54127607D01*
X233367040Y-54197008D01*
X233337252Y-54221454D01*
X233337250Y-54221455D01*
X233222556Y-54282761D01*
X233206786Y-54291190D01*
X233065222Y-54334133D01*
X232991665Y-54341378D01*
X232954888Y-54345000D01*
X232881112Y-54345000D01*
X232844335Y-54341378D01*
X232770778Y-54334133D01*
X232629214Y-54291190D01*
X232613445Y-54282761D01*
X232498750Y-54221455D01*
X232498748Y-54221454D01*
X232468960Y-54197008D01*
X232384393Y-54127607D01*
X232314992Y-54043040D01*
X232290546Y-54013252D01*
X232220810Y-53882786D01*
X232177867Y-53741222D01*
X232163367Y-53594000D01*
X232177867Y-53446778D01*
X232220810Y-53305214D01*
X232290546Y-53174748D01*
X232314992Y-53144960D01*
X232384393Y-53060393D01*
X232468960Y-52990992D01*
X232498748Y-52966546D01*
X232629214Y-52896810D01*
X232770778Y-52853867D01*
X232844335Y-52846622D01*
X232881112Y-52843000D01*
X232954888Y-52843000D01*
X232991665Y-52846622D01*
X232991665Y-52846622D01*
G37*
G36*
X242461936Y-51325340D02*
G01*
X242560220Y-51335020D01*
X242749381Y-51392401D01*
X242923712Y-51485583D01*
X243076515Y-51610985D01*
X243201917Y-51763788D01*
X243295099Y-51938119D01*
X243352480Y-52127280D01*
X243371855Y-52324000D01*
X243352480Y-52520720D01*
X243295099Y-52709881D01*
X243201917Y-52884212D01*
X243076515Y-53037015D01*
X242923712Y-53162417D01*
X242749381Y-53255599D01*
X242560220Y-53312980D01*
X242461936Y-53322660D01*
X242412795Y-53327500D01*
X242219205Y-53327500D01*
X242170064Y-53322660D01*
X242071780Y-53312980D01*
X241882619Y-53255599D01*
X241708288Y-53162417D01*
X241555485Y-53037015D01*
X241430083Y-52884212D01*
X241336901Y-52709881D01*
X241279520Y-52520720D01*
X241260145Y-52324000D01*
X241279520Y-52127280D01*
X241336901Y-51938119D01*
X241430083Y-51763788D01*
X241555485Y-51610985D01*
X241708288Y-51485583D01*
X241882619Y-51392401D01*
X242071780Y-51335020D01*
X242170064Y-51325340D01*
X242219205Y-51320500D01*
X242412795Y-51320500D01*
X242461936Y-51325340D01*
X242461936Y-51325340D01*
G37*
G36*
X250375256Y-48391298D02*
G01*
X250481579Y-48412447D01*
X250782042Y-48536903D01*
X251052451Y-48717585D01*
X251282415Y-48947549D01*
X251437419Y-49179529D01*
X251463098Y-49217960D01*
X251499550Y-49305963D01*
X251587553Y-49518421D01*
X251651000Y-49837391D01*
X251651000Y-50162609D01*
X251587553Y-50481579D01*
X251463097Y-50782042D01*
X251282415Y-51052451D01*
X251052451Y-51282415D01*
X250782042Y-51463097D01*
X250481579Y-51587553D01*
X250375256Y-51608702D01*
X250162611Y-51651000D01*
X249837389Y-51651000D01*
X249624744Y-51608702D01*
X249518421Y-51587553D01*
X249217958Y-51463097D01*
X248947549Y-51282415D01*
X248717585Y-51052451D01*
X248536903Y-50782042D01*
X248412447Y-50481579D01*
X248349000Y-50162609D01*
X248349000Y-49837391D01*
X248412447Y-49518421D01*
X248500450Y-49305963D01*
X248536902Y-49217960D01*
X248562581Y-49179529D01*
X248717585Y-48947549D01*
X248947549Y-48717585D01*
X249217958Y-48536903D01*
X249518421Y-48412447D01*
X249624744Y-48391298D01*
X249837389Y-48349000D01*
X250162611Y-48349000D01*
X250375256Y-48391298D01*
X250375256Y-48391298D01*
G37*
G36*
X242461936Y-48785340D02*
G01*
X242560220Y-48795020D01*
X242749381Y-48852401D01*
X242923712Y-48945583D01*
X243076515Y-49070985D01*
X243201917Y-49223788D01*
X243295099Y-49398119D01*
X243352480Y-49587280D01*
X243371855Y-49784000D01*
X243352480Y-49980720D01*
X243295099Y-50169881D01*
X243201917Y-50344212D01*
X243076515Y-50497015D01*
X242923712Y-50622417D01*
X242749381Y-50715599D01*
X242560220Y-50772980D01*
X242468231Y-50782040D01*
X242412795Y-50787500D01*
X242219205Y-50787500D01*
X242163769Y-50782040D01*
X242071780Y-50772980D01*
X241882619Y-50715599D01*
X241708288Y-50622417D01*
X241555485Y-50497015D01*
X241430083Y-50344212D01*
X241336901Y-50169881D01*
X241279520Y-49980720D01*
X241260145Y-49784000D01*
X241279520Y-49587280D01*
X241336901Y-49398119D01*
X241430083Y-49223788D01*
X241555485Y-49070985D01*
X241708288Y-48945583D01*
X241882619Y-48852401D01*
X242071780Y-48795020D01*
X242170064Y-48785340D01*
X242219205Y-48780500D01*
X242412795Y-48780500D01*
X242461936Y-48785340D01*
X242461936Y-48785340D01*
G37*
G36*
X233112626Y-47787000D02*
G01*
X233137059Y-47791860D01*
X233273732Y-47848472D01*
X233396735Y-47930660D01*
X233501340Y-48035265D01*
X233583528Y-48158268D01*
X233640140Y-48294941D01*
X233669000Y-48440033D01*
X233669000Y-48587967D01*
X233640140Y-48733059D01*
X233583528Y-48869732D01*
X233501340Y-48992735D01*
X233396735Y-49097340D01*
X233273732Y-49179528D01*
X233273731Y-49179529D01*
X233273730Y-49179529D01*
X233137059Y-49236140D01*
X232991968Y-49265000D01*
X232844032Y-49265000D01*
X232698941Y-49236140D01*
X232562270Y-49179529D01*
X232562269Y-49179529D01*
X232562268Y-49179528D01*
X232439265Y-49097340D01*
X232334660Y-48992735D01*
X232252472Y-48869732D01*
X232195860Y-48733059D01*
X232167000Y-48587967D01*
X232167000Y-48440033D01*
X232195860Y-48294941D01*
X232252472Y-48158268D01*
X232334660Y-48035265D01*
X232439265Y-47930660D01*
X232562268Y-47848472D01*
X232698941Y-47791860D01*
X232723374Y-47787000D01*
X232844032Y-47763000D01*
X232991968Y-47763000D01*
X233112626Y-47787000D01*
X233112626Y-47787000D01*
G37*
G36*
X243367000Y-48247500D02*
G01*
X241265000Y-48247500D01*
X241265000Y-46240500D01*
X243367000Y-46240500D01*
X243367000Y-48247500D01*
X243367000Y-48247500D01*
G37*
G36*
X238595000Y-47841000D02*
G01*
X236893000Y-47841000D01*
X236893000Y-46139000D01*
X238595000Y-46139000D01*
X238595000Y-47841000D01*
X238595000Y-47841000D01*
G37*
G36*
X225604564Y-45725389D02*
G01*
X225795833Y-45804615D01*
X225795835Y-45804616D01*
X225967973Y-45919635D01*
X226114365Y-46066027D01*
X226229385Y-46238167D01*
X226308611Y-46429436D01*
X226349000Y-46632484D01*
X226349000Y-46839516D01*
X226308611Y-47042564D01*
X226229385Y-47233833D01*
X226229384Y-47233835D01*
X226114365Y-47405973D01*
X225967973Y-47552365D01*
X225795835Y-47667384D01*
X225795834Y-47667385D01*
X225795833Y-47667385D01*
X225604564Y-47746611D01*
X225401516Y-47787000D01*
X225194484Y-47787000D01*
X224991436Y-47746611D01*
X224800167Y-47667385D01*
X224800166Y-47667385D01*
X224800165Y-47667384D01*
X224628027Y-47552365D01*
X224481635Y-47405973D01*
X224366616Y-47233835D01*
X224366615Y-47233833D01*
X224287389Y-47042564D01*
X224247000Y-46839516D01*
X224247000Y-46632484D01*
X224287389Y-46429436D01*
X224366615Y-46238167D01*
X224481635Y-46066027D01*
X224628027Y-45919635D01*
X224800165Y-45804616D01*
X224800167Y-45804615D01*
X224991436Y-45725389D01*
X225194484Y-45685000D01*
X225401516Y-45685000D01*
X225604564Y-45725389D01*
X225604564Y-45725389D01*
G37*
G36*
X212875256Y-40891298D02*
G01*
X212981579Y-40912447D01*
X213282042Y-41036903D01*
X213552451Y-41217585D01*
X213782415Y-41447549D01*
X213963097Y-41717958D01*
X214087553Y-42018421D01*
X214151000Y-42337391D01*
X214151000Y-42662609D01*
X214087553Y-42981579D01*
X213963097Y-43282042D01*
X213782415Y-43552451D01*
X213552451Y-43782415D01*
X213282042Y-43963097D01*
X212981579Y-44087553D01*
X212875256Y-44108702D01*
X212662611Y-44151000D01*
X212337389Y-44151000D01*
X212124744Y-44108702D01*
X212018421Y-44087553D01*
X211717958Y-43963097D01*
X211447549Y-43782415D01*
X211217585Y-43552451D01*
X211036903Y-43282042D01*
X210912447Y-42981579D01*
X210849000Y-42662609D01*
X210849000Y-42337391D01*
X210912447Y-42018421D01*
X211036903Y-41717958D01*
X211217585Y-41447549D01*
X211447549Y-41217585D01*
X211717958Y-41036903D01*
X212018421Y-40912447D01*
X212124744Y-40891298D01*
X212337389Y-40849000D01*
X212662611Y-40849000D01*
X212875256Y-40891298D01*
X212875256Y-40891298D01*
G37*
G36*
X248283393Y-36849304D02*
G01*
X248520101Y-36947352D01*
X248520103Y-36947353D01*
X248733135Y-37089696D01*
X248914304Y-37270865D01*
X249056647Y-37483897D01*
X249056648Y-37483899D01*
X249154696Y-37720607D01*
X249204680Y-37971893D01*
X249204680Y-38228107D01*
X249154696Y-38479393D01*
X249056648Y-38716101D01*
X249056647Y-38716103D01*
X248914304Y-38929135D01*
X248733135Y-39110304D01*
X248520103Y-39252647D01*
X248520102Y-39252648D01*
X248520101Y-39252648D01*
X248283393Y-39350696D01*
X248032107Y-39400680D01*
X247775893Y-39400680D01*
X247524607Y-39350696D01*
X247287899Y-39252648D01*
X247287898Y-39252648D01*
X247287897Y-39252647D01*
X247074865Y-39110304D01*
X246893696Y-38929135D01*
X246751353Y-38716103D01*
X246751352Y-38716101D01*
X246653304Y-38479393D01*
X246603320Y-38228107D01*
X246603320Y-37971893D01*
X246653304Y-37720607D01*
X246751352Y-37483899D01*
X246751353Y-37483897D01*
X246893696Y-37270865D01*
X247074865Y-37089696D01*
X247287897Y-36947353D01*
X247287899Y-36947352D01*
X247524607Y-36849304D01*
X247775893Y-36799320D01*
X248032107Y-36799320D01*
X248283393Y-36849304D01*
X248283393Y-36849304D01*
G37*
G36*
X245394680Y-39400680D02*
G01*
X242793320Y-39400680D01*
X242793320Y-36799320D01*
X245394680Y-36799320D01*
X245394680Y-39400680D01*
X245394680Y-39400680D01*
G37*
G36*
X237361393Y-36849304D02*
G01*
X237598101Y-36947352D01*
X237598103Y-36947353D01*
X237811135Y-37089696D01*
X237992304Y-37270865D01*
X238134647Y-37483897D01*
X238134648Y-37483899D01*
X238232696Y-37720607D01*
X238282680Y-37971893D01*
X238282680Y-38228107D01*
X238232696Y-38479393D01*
X238134648Y-38716101D01*
X238134647Y-38716103D01*
X237992304Y-38929135D01*
X237811135Y-39110304D01*
X237598103Y-39252647D01*
X237598102Y-39252648D01*
X237598101Y-39252648D01*
X237361393Y-39350696D01*
X237110107Y-39400680D01*
X236853893Y-39400680D01*
X236602607Y-39350696D01*
X236365899Y-39252648D01*
X236365898Y-39252648D01*
X236365897Y-39252647D01*
X236152865Y-39110304D01*
X235971696Y-38929135D01*
X235829353Y-38716103D01*
X235829352Y-38716101D01*
X235731304Y-38479393D01*
X235681320Y-38228107D01*
X235681320Y-37971893D01*
X235731304Y-37720607D01*
X235829352Y-37483899D01*
X235829353Y-37483897D01*
X235971696Y-37270865D01*
X236152865Y-37089696D01*
X236365897Y-36947353D01*
X236365899Y-36947352D01*
X236602607Y-36849304D01*
X236853893Y-36799320D01*
X237110107Y-36799320D01*
X237361393Y-36849304D01*
X237361393Y-36849304D01*
G37*
G36*
X234472680Y-39400680D02*
G01*
X231871320Y-39400680D01*
X231871320Y-36799320D01*
X234472680Y-36799320D01*
X234472680Y-39400680D01*
X234472680Y-39400680D01*
G37*
G36*
X222883393Y-36849304D02*
G01*
X223120101Y-36947352D01*
X223120103Y-36947353D01*
X223333135Y-37089696D01*
X223514304Y-37270865D01*
X223656647Y-37483897D01*
X223656648Y-37483899D01*
X223754696Y-37720607D01*
X223804680Y-37971893D01*
X223804680Y-38228107D01*
X223754696Y-38479393D01*
X223656648Y-38716101D01*
X223656647Y-38716103D01*
X223514304Y-38929135D01*
X223333135Y-39110304D01*
X223120103Y-39252647D01*
X223120102Y-39252648D01*
X223120101Y-39252648D01*
X222883393Y-39350696D01*
X222632107Y-39400680D01*
X222375893Y-39400680D01*
X222124607Y-39350696D01*
X221887899Y-39252648D01*
X221887898Y-39252648D01*
X221887897Y-39252647D01*
X221674865Y-39110304D01*
X221493696Y-38929135D01*
X221351353Y-38716103D01*
X221351352Y-38716101D01*
X221253304Y-38479393D01*
X221203320Y-38228107D01*
X221203320Y-37971893D01*
X221253304Y-37720607D01*
X221351352Y-37483899D01*
X221351353Y-37483897D01*
X221493696Y-37270865D01*
X221674865Y-37089696D01*
X221887897Y-36947353D01*
X221887899Y-36947352D01*
X222124607Y-36849304D01*
X222375893Y-36799320D01*
X222632107Y-36799320D01*
X222883393Y-36849304D01*
X222883393Y-36849304D01*
G37*
G36*
X219994680Y-39400680D02*
G01*
X217393320Y-39400680D01*
X217393320Y-36799320D01*
X219994680Y-36799320D01*
X219994680Y-39400680D01*
X219994680Y-39400680D01*
G37*
M02*
